<?xml version="1.0" standalone="no"?>
<!DOCTYPE svg PUBLIC "-//W3C//DTD SVG 20010904//EN"
 "http://www.w3.org/TR/2001/REC-SVG-20010904/DTD/svg10.dtd">
<svg version="1.0" xmlns="http://www.w3.org/2000/svg"
 width="1280.000000pt" height="900.000000pt" viewBox="0 0 1080.000000 1080.000000"
 preserveAspectRatio="xMidYMid meet">



<g transform="translate(0.000000,1080.000000) scale(0.100000,-0.100000)"
fill="#07548c" stroke="none">


<path d="M6475 10421 c-33 -10 -64 -18 -68 -19 -5 0 -11 -2 -13 -5 -3 -3 32
-5 78 -6 46 -1 100 -6 121 -10 31 -8 39 -6 47 9 23 43 -69 61 -165 31z"/>
<path d="M6223 10350 c-24 -11 -43 -22 -43 -25 0 -6 93 3 119 11 11 4 10 8 -5
19 -23 18 -20 18 -71 -5z"/>
<path d="M6340 10302 c20 -10 60 -36 90 -58 72 -53 100 -68 100 -53 0 43 -101
111 -185 123 l-40 6 35 -18z"/>
<path d="M6119 10285 c-34 -11 -63 -33 -116 -87 -76 -79 -110 -138 -154 -263
-48 -139 -50 -144 -64 -139 -33 13 -301 -143 -328 -192 -12 -21 -3 -18 63 25
72 47 146 74 192 69 29 -3 35 -8 47 -46 9 -28 21 -46 36 -52 29 -11 31 -15 39
-73 l7 -48 -56 -55 c-31 -30 -64 -54 -74 -54 -9 0 -22 -5 -28 -11 -19 -19 -35
-1 -22 24 11 21 10 20 -17 -3 -16 -14 -53 -49 -81 -79 l-53 -53 0 36 c0 40 21
88 53 124 11 12 16 22 10 22 -6 0 -27 -21 -46 -47 -37 -51 -143 -156 -217
-215 -52 -41 -206 -120 -332 -169 -49 -19 -88 -37 -88 -41 0 -5 15 -8 33 -8
17 0 39 -5 47 -10 13 -9 13 -11 0 -20 -24 -15 -102 -28 -137 -23 -25 4 -31 2
-30 -13 1 -11 -7 -20 -23 -25 -18 -5 -9 -7 31 -8 32 -1 73 6 95 15 51 22 104
34 104 24 0 -10 -37 -24 -135 -51 -58 -16 -96 -20 -140 -16 l-60 6 25 -20 c14
-10 37 -19 53 -19 15 0 27 -4 27 -9 0 -13 82 -28 220 -42 63 -6 117 -13 119
-15 2 -2 -3 -12 -12 -22 -36 -39 32 -168 85 -160 21 3 23 8 22 54 -2 69 -22
107 -59 114 -30 6 -30 6 -6 14 13 5 52 34 86 66 35 32 80 67 101 78 48 24 215
84 221 79 2 -3 -44 -24 -102 -47 -58 -24 -104 -44 -102 -46 2 -2 189 46 236
61 19 6 23 4 18 -8 -9 -25 73 -51 87 -28 5 8 -69 51 -88 51 -14 0 -37 30 -31
40 10 17 29 11 65 -18 74 -61 116 -69 75 -16 -22 28 -25 38 -14 44 25 16 102
-37 125 -85 18 -39 140 -171 128 -140 -62 171 -82 213 -116 247 l-36 36 36 15
c40 16 65 10 80 -21 5 -9 26 -89 46 -177 21 -88 40 -169 43 -180 4 -16 -2 -13
-24 11 -16 17 -47 43 -69 58 -22 14 -62 51 -88 81 -45 52 -76 70 -76 43 0 -11
8 -51 25 -125 3 -14 29 -36 74 -62 73 -43 107 -77 158 -157 32 -49 61 -143 31
-100 -42 61 -148 169 -148 151 0 -13 24 -51 60 -95 48 -58 90 -136 90 -166 0
-26 -20 -74 -30 -74 -4 0 -13 14 -20 30 -7 17 -15 29 -17 26 -2 -2 2 -17 10
-33 33 -64 47 -131 62 -290 11 -126 26 -213 59 -348 60 -242 68 -295 64 -397
l-3 -87 105 -120 c57 -66 107 -116 110 -112 3 5 16 12 30 16 36 10 87 62 122
123 43 75 81 195 144 447 30 121 58 233 62 250 6 24 23 38 80 70 40 22 87 52
105 66 l32 26 6 135 c4 92 12 152 25 189 13 37 19 82 19 144 0 86 -1 92 -36
145 -37 57 -101 103 -118 85 -5 -6 -11 -43 -14 -83 -3 -40 -7 -76 -10 -78 -7
-8 -42 46 -61 95 l-17 44 35 29 c38 31 50 66 19 53 -45 -19 -122 -35 -172 -35
-44 0 -65 6 -108 32 -29 18 -53 37 -53 43 0 5 17 20 38 32 l38 21 59 -20 c103
-35 176 -14 214 60 14 27 51 44 67 31 13 -11 44 64 64 153 13 56 13 57 -16 90
-34 39 -101 175 -91 184 4 4 30 -5 58 -19 28 -15 56 -27 63 -27 6 0 27 13 46
28 25 21 33 36 33 60 0 24 5 32 18 32 22 0 34 22 44 77 4 24 10 45 15 48 4 3
38 9 75 14 37 6 70 12 72 15 8 7 -16 62 -40 92 -27 34 -81 67 -146 89 -42 13
-74 16 -140 13 -103 -6 -195 -36 -371 -118 -146 -68 -202 -80 -281 -56 -68 19
-156 72 -183 109 l-21 29 30 24 c17 13 80 44 140 69 221 91 179 84 -65 -11
-91 -36 -173 -69 -183 -75 -11 -6 -24 -6 -37 1 -26 14 -40 13 -40 -5 0 -23
-22 -65 -31 -59 -5 3 -9 31 -9 63 0 49 7 72 50 158 70 142 130 199 294 285 87
45 105 59 53 39 -43 -17 -127 -40 -127 -36 0 20 202 84 208 66 1 -4 14 -6 28
-3 22 4 18 8 -32 28 -31 12 -78 28 -105 35 -27 7 -49 16 -49 20 0 11 57 21 80
14 11 -3 27 -2 37 3 14 9 11 12 -21 26 -46 19 -125 20 -187 1z m-181 -797 c14
-14 16 -48 4 -48 -15 0 -44 38 -37 49 8 14 18 14 33 -1z m255 -69 c12 -6 72
-45 133 -85 119 -80 214 -124 267 -124 54 0 130 30 159 62 25 29 27 29 37 10
19 -36 60 -192 55 -207 -5 -11 -22 -15 -64 -15 -65 0 -76 8 -55 36 16 21 20
80 6 88 -5 3 -23 3 -41 0 -23 -5 -42 -21 -68 -56 -60 -81 -134 -158 -151 -158
-31 0 -71 37 -169 155 -55 66 -118 138 -141 160 -40 38 -41 41 -35 85 4 25 8
48 11 53 6 10 31 9 56 -4z m-199 -102 c3 3 14 0 23 -8 10 -8 35 -23 56 -33 32
-17 37 -24 37 -54 0 -31 -2 -34 -22 -28 -13 3 -37 6 -55 6 -27 0 -37 8 -70 58
-48 69 -53 82 -41 105 8 16 12 15 37 -17 16 -20 31 -33 35 -29z m26 -205 c0
-10 -5 -23 -11 -29 -32 -32 59 -412 126 -529 28 -48 98 -115 152 -143 69 -37
76 -46 69 -87 -8 -39 -50 -89 -66 -79 -6 4 -24 34 -40 68 -16 34 -54 91 -85
127 -71 83 -90 124 -125 262 -16 62 -38 148 -49 192 -26 96 -26 148 -3 197 18
41 32 50 32 21z m860 -84 c11 -18 20 -47 20 -65 0 -36 -25 -67 -47 -59 -8 3
-22 6 -30 6 -12 0 -14 7 -8 37 7 38 34 113 41 113 2 0 13 -15 24 -32z m-210
-73 c28 -25 45 -45 38 -46 -115 -5 -181 -18 -203 -39 -14 -13 -25 -26 -25 -30
0 -4 25 -2 56 4 41 7 61 7 75 -2 28 -18 95 -15 183 8 43 12 81 18 84 15 8 -7
6 -8 -78 -39 -98 -36 -273 -53 -308 -30 -13 8 -31 13 -41 9 -18 -5 -43 16 -54
46 -8 23 17 55 61 80 20 11 55 31 77 44 56 35 77 31 135 -20z m62 -446 c4 -45
1 -93 -13 -162 -10 -54 -21 -126 -24 -160 -8 -79 -23 -127 -40 -127 -7 0 -31
20 -53 44 -37 40 -40 47 -33 79 12 49 21 63 33 46 7 -10 8 -5 4 14 -8 36 13
112 28 97 5 -5 20 -10 33 -10 31 0 38 32 36 153 -1 70 2 97 10 94 7 -2 15 -32
19 -68z m-115 -31 c-3 -7 -5 -2 -5 12 0 14 2 19 5 13 2 -7 2 -19 0 -25z m-63
-423 c-32 -43 -57 -112 -64 -178 -11 -100 -62 -148 -75 -69 -4 20 -15 82 -25
137 -11 54 -18 100 -16 102 10 11 50 -103 59 -171 6 -44 13 -70 15 -56 5 36
61 198 84 244 15 29 22 36 29 25 5 -9 3 -21 -7 -34z m326 -79 c0 -9 -122 -97
-147 -107 -20 -7 -24 -6 -21 7 2 9 33 33 70 53 37 20 70 40 74 44 8 8 24 10
24 3z"/>
<path d="M5990 9291 c0 -5 5 -13 10 -16 6 -3 10 -2 10 4 0 5 -4 13 -10 16 -5
3 -10 2 -10 -4z"/>
<path d="M6610 8158 c0 -9 5 -20 10 -23 13 -8 13 5 0 25 -8 13 -10 13 -10 -2z"/>
<path d="M6807 10271 c-23 -40 -21 -56 8 -69 37 -17 36 -17 33 40 -4 60 -17
70 -41 29z"/>
<path d="M6716 10254 c-16 -11 -17 -16 -6 -29 17 -20 40 -19 40 3 0 32 -13 42
-34 26z"/>
<path d="M6897 10253 c-4 -3 -7 -21 -7 -39 0 -23 7 -36 25 -48 24 -16 26 -16
35 9 14 36 13 39 -13 63 -25 24 -30 26 -40 15z"/>
<path d="M6560 10226 c0 -2 7 -6 15 -10 8 -3 15 -1 15 4 0 6 -7 10 -15 10 -8
0 -15 -2 -15 -4z"/>
<path d="M6987 10156 c-15 -37 -8 -56 19 -56 22 0 24 -2 14 -15 -13 -15 -5
-39 11 -30 17 11 9 64 -14 91 -21 24 -24 25 -30 10z"/>
<path d="M6733 10025 c-40 -8 -77 -16 -81 -19 -5 -3 -18 1 -28 9 -10 8 -22 15
-26 15 -15 0 -8 -51 7 -56 18 -7 191 36 214 53 20 16 11 15 -86 -2z"/>
<path d="M5431 9414 c-19 -8 -77 -59 -129 -114 -52 -56 -120 -116 -154 -137
-33 -20 -56 -39 -50 -41 14 -4 73 27 90 47 12 14 13 14 8 -1 -7 -22 -3 -22 34
-3 15 8 45 36 66 62 21 27 72 83 113 126 78 79 80 87 22 61z"/>
<path d="M5389 9290 c-88 -86 -88 -92 2 -33 36 24 106 110 96 119 -3 3 -47
-36 -98 -86z"/>
<path d="M4524 9185 c11 -8 24 -15 30 -15 5 0 1 7 -10 15 -10 8 -23 14 -29 14
-5 0 -1 -6 9 -14z"/>
<path d="M4541 9146 c18 -15 218 -96 238 -96 24 0 -70 44 -183 86 -36 13 -65
19 -55 10z"/>
<path d="M5629 8841 c-36 -3 -74 -13 -84 -21 -16 -13 -10 -16 71 -26 49 -6 90
-10 91 -9 2 1 6 16 9 33 5 24 3 32 -7 30 -8 0 -44 -4 -80 -7z"/>
<path d="M5255 8786 c-27 -26 -35 -39 -27 -48 5 -7 13 -28 17 -45 7 -35 9 -36
68 -33 35 1 37 0 37 -29 0 -18 -9 -38 -22 -51 -39 -36 -46 -25 -22 35 8 21
-41 -35 -91 -103 -16 -23 -35 -42 -41 -42 -31 0 -114 115 -114 160 0 11 -4 20
-8 20 -13 0 -32 -47 -32 -76 0 -47 -27 -90 -101 -158 -41 -38 -119 -98 -174
-133 -55 -36 -118 -78 -140 -93 -22 -15 -56 -35 -75 -45 -19 -10 -60 -40 -90
-67 -30 -28 -64 -54 -75 -60 -19 -9 -65 -66 -65 -81 0 -14 36 -7 65 13 33 22
50 26 40 10 -3 -5 1 -10 9 -10 8 0 68 -16 133 -37 127 -39 245 -61 333 -63 43
0 51 -3 37 -11 -30 -17 -255 8 -420 47 -178 42 -203 41 -234 -5 -13 -19 -23
-38 -23 -42 0 -5 20 -9 45 -9 40 0 266 -52 355 -82 47 -16 61 -30 25 -23 -214
35 -278 48 -314 66 -55 26 -141 37 -141 18 0 -8 -13 -34 -29 -58 -17 -25 -27
-49 -24 -55 4 -6 8 -6 11 2 2 7 12 12 22 12 24 0 260 -60 280 -71 25 -14 -57
-10 -155 7 -49 9 -105 13 -122 10 -25 -3 -33 -1 -33 10 0 23 -15 16 -41 -18
-13 -17 -33 -43 -45 -57 -12 -14 -24 -43 -27 -63 -5 -36 -4 -38 21 -38 15 0
40 9 56 19 27 18 27 19 7 26 -11 3 -21 10 -21 15 0 22 61 20 260 -10 162 -23
220 -28 244 -21 65 21 217 39 371 45 167 7 292 -1 277 -16 -10 -10 -240 -33
-492 -48 -154 -9 -206 -8 -310 5 -279 34 -280 34 -301 11 -11 -11 -17 -27 -13
-38 5 -16 -2 -18 -68 -19 -40 0 -91 -4 -113 -8 l-40 -7 74 -23 c41 -13 102
-36 137 -52 35 -16 71 -29 80 -29 27 0 265 -79 329 -110 46 -22 54 -28 35 -29
-23 -1 -85 13 -120 26 -8 3 -62 22 -120 43 -58 21 -136 50 -173 64 -81 31
-155 33 -213 7 -54 -25 -61 -38 -24 -46 48 -11 35 -20 -23 -17 -43 3 -56 0
-71 -17 -19 -21 -19 -21 25 -21 24 0 87 -12 139 -25 52 -14 132 -27 177 -30
45 -3 102 -13 125 -22 l43 -17 -38 -7 c-46 -7 -158 11 -297 50 -138 39 -170
45 -170 33 0 -9 46 -23 130 -37 19 -4 67 -17 105 -30 119 -40 286 -83 385 -99
52 -8 138 -29 190 -46 52 -17 127 -35 165 -41 95 -15 120 -32 35 -24 -36 4
-81 10 -100 15 -19 5 -66 12 -105 15 -38 4 -97 15 -130 25 -60 19 -476 129
-590 157 -72 17 -132 9 -218 -33 -61 -28 -89 -53 -46 -40 43 13 206 29 225 22
33 -12 0 -24 -121 -41 -128 -18 -140 -22 -140 -45 0 -10 -8 -14 -21 -12 -25 3
-68 -44 -60 -65 3 -7 1 -13 -4 -13 -5 0 -8 -9 -7 -19 0 -11 4 -19 7 -19 9 2
80 -13 225 -48 77 -19 151 -36 164 -39 13 -3 21 -8 19 -10 -3 -3 -74 8 -158
25 -181 35 -270 46 -270 34 0 -15 14 -30 35 -38 46 -17 369 -61 715 -97 58 -6
107 -13 110 -16 7 -7 -317 5 -495 18 -77 6 -168 8 -202 4 -78 -8 -126 12 -149
61 -9 19 -23 34 -31 34 -31 0 24 -81 69 -100 15 -7 25 -17 22 -25 -3 -7 4 -16
15 -20 28 -8 83 -64 75 -76 -6 -11 106 -66 151 -75 17 -3 78 2 137 10 202 30
346 17 440 -40 66 -41 75 -52 21 -27 -29 13 -77 17 -207 21 -178 4 -344 -5
-330 -18 14 -12 100 -37 224 -65 177 -39 430 -125 370 -125 -46 0 -313 64
-424 102 -34 11 -99 40 -146 64 -47 24 -128 61 -180 83 -108 46 -224 121 -210
135 5 5 -1 16 -16 28 -15 12 -24 30 -24 47 0 31 -27 74 -41 66 -13 -9 -11 -46
6 -75 8 -14 18 -34 23 -45 15 -31 135 -176 175 -212 138 -121 347 -215 599
-269 227 -48 297 -56 503 -61 187 -5 207 -7 190 -20 -29 -22 -362 -11 -500 16
-288 57 -364 75 -419 102 -34 17 -53 23 -46 14 13 -16 -26 1 -147 63 -83 42
-249 169 -310 236 -27 29 -68 89 -91 132 -42 80 -51 82 -31 9 22 -80 105 -173
272 -307 131 -104 243 -158 424 -204 76 -19 143 -36 148 -38 6 -2 -35 -2 -89
1 -68 4 -97 3 -93 -4 9 -15 -172 -17 -258 -3 -38 6 -109 24 -158 40 -72 24
-106 30 -171 29 -44 -1 -72 -3 -61 -6 30 -7 188 -74 204 -87 9 -7 91 -11 245
-12 223 0 275 -4 361 -26 32 -8 36 -12 22 -20 -10 -5 -26 -6 -37 -3 -33 10
-23 -3 23 -29 23 -14 66 -28 95 -32 50 -6 63 -16 41 -29 -32 -21 -316 -36
-549 -30 -302 8 -432 19 -535 45 -83 20 -190 26 -213 11 -8 -5 -12 -16 -10
-26 3 -16 13 -18 78 -16 64 2 82 -2 123 -23 58 -31 150 -35 307 -11 89 13 115
13 223 1 67 -8 157 -18 200 -22 73 -6 97 -17 60 -27 -58 -16 -88 -15 -238 8
-181 27 -214 30 -199 16 9 -10 161 -35 274 -46 151 -15 532 36 679 91 89 34
88 23 -1 -14 -160 -66 -422 -121 -1053 -222 -27 -5 -104 -9 -170 -9 -116 -1
-171 -12 -133 -26 32 -12 715 20 848 40 247 36 360 69 586 171 82 36 197 88
255 114 69 30 132 67 178 105 39 31 71 60 71 64 0 3 15 22 33 41 55 60 70 80
63 80 -4 0 -30 -22 -58 -50 -28 -27 -53 -50 -57 -50 -3 0 22 28 56 63 67 66
93 115 93 171 0 19 4 38 10 41 5 3 18 25 30 48 11 23 36 69 55 102 19 33 40
77 45 97 12 41 5 38 160 76 41 10 81 21 89 23 11 3 18 -13 27 -63 17 -87 34
-118 86 -159 24 -18 73 -59 110 -91 37 -32 107 -84 156 -116 49 -31 108 -70
132 -86 108 -71 475 -245 489 -231 2 3 -3 21 -12 40 -17 35 -28 42 -131 81
-65 25 -69 41 -12 55 25 6 46 15 46 19 0 17 -83 78 -207 151 -232 137 -310
179 -332 179 -12 0 -42 19 -67 42 -35 32 -56 43 -97 49 -65 11 -92 31 -130 98
-27 47 -31 66 -38 174 -11 174 -35 284 -114 517 -31 92 -50 172 -61 250 -8 63
-22 167 -30 229 -11 81 -24 134 -45 179 -31 70 -35 96 -18 155 19 68 93 80
334 50 28 -3 48 -3 45 0 -8 9 -170 28 -244 29 -45 0 -86 -5 -110 -16 -46 -19
-215 -139 -285 -202 -33 -30 -52 -41 -57 -33 -4 7 1 16 12 22 10 6 42 31 69
57 63 58 184 154 210 167 47 24 181 45 250 40 42 -3 60 -2 45 3 -42 14 -191
11 -260 -6 -39 -9 -105 -37 -163 -70 -54 -31 -101 -53 -105 -49 -8 8 137 147
183 176 35 22 103 24 265 9 153 -15 267 -50 330 -104 14 -11 5 1 -20 28 -61
66 -101 89 -222 131 -113 39 -150 61 -219 126 -25 24 -56 51 -69 59 -25 17
-22 46 6 75 13 13 10 16 -23 30 -74 32 -96 31 -138 -9z m-482 -660 c45 -24
117 -58 159 -76 79 -32 118 -60 82 -60 -54 1 -286 120 -324 165 -19 23 -7 19
83 -29z m105 -191 c63 -20 112 -38 110 -40 -6 -6 -241 66 -253 77 -11 12 -15
13 143 -37z m-693 -725 c22 -10 33 -19 25 -19 -8 0 -33 9 -55 19 -22 10 -33
19 -25 19 8 0 33 -9 55 -19z m-394 -240 c30 -6 84 -13 120 -15 44 -3 108 -18
185 -45 132 -46 305 -97 464 -136 58 -14 112 -30 120 -36 11 -7 8 -8 -10 -3
-14 3 -54 12 -90 19 -36 8 -137 32 -225 54 -88 22 -198 47 -245 56 -47 8 -113
27 -148 41 -57 23 -74 25 -219 25 -155 0 -193 6 -179 29 4 6 11 9 14 7 4 -2
23 -1 42 4 50 12 110 12 171 0z m959 -250 c13 -9 13 -10 0 -9 -8 0 -24 4 -35
9 l-20 9 20 0 c11 0 27 -4 35 -9z m-1113 -26 c-3 -3 -12 -4 -19 -1 -8 3 -5 6
6 6 11 1 17 -2 13 -5z"/>
<path d="M5920 8281 c14 -11 30 -21 35 -21 11 0 -7 14 -40 31 -13 7 -12 3 5
-10z"/>
<path d="M3986 7385 c-4 -12 3 -15 37 -15 41 1 42 1 17 15 -32 19 -47 19 -54
0z"/>
<path d="M5765 6950 c-10 -33 34 -100 65 -100 39 0 32 48 -13 98 -25 27 -44
28 -52 2z"/>
<path d="M9649 6492 l-36 -3 -7 -77 c-7 -92 -32 -260 -41 -285 -5 -13 -2 -17
13 -17 11 0 23 8 26 18 7 25 45 271 48 311 2 19 9 36 16 39 16 5 12 -43 -23
-243 -22 -130 -21 -144 12 -145 13 0 23 25 29 78 9 79 47 288 55 302 19 33 6
-85 -31 -289 -14 -78 -13 -91 9 -91 23 0 24 7 46 175 24 187 25 195 35 195 10
0 9 -9 -11 -177 -6 -51 -8 -101 -4 -113 5 -14 2 -20 -9 -20 -9 0 -16 -4 -16
-9 0 -4 13 -8 30 -7 33 1 32 -6 54 194 8 68 17 126 20 130 9 9 7 -86 -4 -173
-6 -44 -12 -89 -13 -100 -1 -15 4 -20 23 -20 26 0 23 -16 54 247 l7 56 -43 7
c-63 11 -198 20 -239 17z"/>
<path d="M9480 6483 c-71 -7 -187 -36 -255 -63 -38 -15 -104 -40 -146 -54
-102 -36 -205 -102 -315 -201 -105 -95 -233 -177 -389 -250 -152 -72 -256
-111 -354 -135 -47 -11 -93 -27 -102 -36 -18 -17 -39 -12 -39 9 0 7 7 24 14
40 22 41 0 32 -28 -12 -30 -47 -43 -56 -59 -43 -7 5 -48 15 -92 21 -44 5 -127
18 -185 26 -151 24 -154 24 -158 -1 -3 -19 5 -22 75 -34 43 -8 87 -15 98 -15
11 -1 75 -8 143 -16 112 -12 122 -15 122 -34 0 -44 -9 -46 -136 -29 -68 10
-124 22 -130 30 -6 8 -15 10 -20 5 -11 -11 -124 9 -124 21 0 4 -4 8 -10 8 -5
0 -10 -20 -10 -45 0 -25 -2 -45 -4 -45 -2 0 -28 11 -58 24 -55 25 -55 25 -72
91 -9 37 -24 77 -32 90 -10 15 -13 33 -9 47 7 21 6 22 -10 7 -9 -9 -16 -32
-17 -55 0 -21 -3 -59 -5 -83 l-5 -44 -66 7 c-47 5 -73 13 -89 28 -20 19 -25
19 -71 8 -45 -12 -52 -11 -78 7 -26 19 -32 20 -54 7 -14 -7 -37 -13 -52 -14
-34 0 -35 -13 -3 -65 13 -22 29 -50 34 -62 5 -11 15 -24 20 -28 6 -3 11 -15
11 -25 0 -45 74 -66 135 -38 21 9 32 8 68 -10 24 -11 74 -24 117 -28 41 -4 93
-15 115 -25 44 -20 85 -25 85 -9 0 6 16 10 35 10 30 0 39 5 53 31 16 29 20 30
62 25 25 -3 104 -11 175 -16 72 -6 154 -15 184 -20 67 -12 87 -1 124 65 l26
46 -25 9 c-14 6 -31 10 -38 10 -27 0 -24 14 10 52 19 21 32 43 29 48 -4 6 10
10 31 10 36 0 37 -1 18 -16 -18 -14 -15 -15 36 -10 112 11 207 34 260 63 210
114 251 134 259 129 5 -3 17 7 26 22 38 57 227 293 233 288 3 -3 -23 -41 -58
-83 -41 -50 -78 -109 -103 -165 l-38 -88 -6 -183 c-4 -139 -2 -202 10 -268 20
-110 41 -163 63 -155 8 3 21 7 27 7 7 1 -1 4 -17 8 -34 7 -48 31 -18 31 11 0
33 7 48 15 l29 15 -52 0 c-59 0 -74 22 -25 36 l27 7 -30 7 c-25 6 -21 8 25 10
44 2 50 4 30 10 -14 4 -40 8 -57 9 -22 1 -33 6 -33 16 0 8 6 15 13 15 8 0 14
7 14 15 0 8 -6 16 -14 19 -19 8 -16 26 4 26 9 0 13 3 10 7 -4 3 -2 12 4 20 9
10 7 13 -11 13 -28 0 -21 24 9 28 12 2 34 10 49 18 l27 14 -42 0 c-23 0 -45 5
-48 10 -3 6 3 10 13 10 11 0 33 7 48 15 l29 15 -42 0 c-23 0 -45 5 -48 10 -4
6 13 10 44 10 52 0 74 19 24 21 -16 0 -37 4 -48 9 -16 7 -12 9 20 11 32 2 34
3 12 6 -35 6 -30 26 9 34 27 6 27 7 -8 8 -28 1 -38 5 -38 17 0 15 9 16 75 11
43 -4 75 -3 75 2 0 5 2 16 6 24 4 11 -10 16 -65 21 -67 7 -89 20 -56 32 8 4
15 12 15 20 0 8 10 14 23 15 17 0 15 3 -12 13 -40 14 -27 31 17 22 15 -3 21
-3 15 0 -29 12 -13 34 25 34 24 0 32 3 23 9 -11 7 -11 9 0 14 8 3 4 6 -8 6
-13 1 -23 7 -23 16 0 29 73 49 83 23 3 -8 6 -6 6 5 1 9 -4 17 -10 17 -5 0 -7
5 -4 10 3 6 15 10 26 10 11 0 19 7 19 18 0 9 4 23 9 31 7 10 9 4 8 -20 l-2
-34 60 -2 c49 -1 54 0 27 7 -18 4 -43 5 -54 2 -16 -4 -19 -1 -16 14 3 16 13
19 66 19 34 0 62 3 62 8 0 4 -8 7 -17 7 -15 0 -16 2 -3 10 11 7 8 10 -16 10
-54 0 -59 22 -11 53 l42 28 5 -33 c5 -26 7 -19 13 38 4 38 5 77 2 86 -6 14 21
35 32 24 2 -2 -1 -32 -7 -67 -12 -77 -12 -102 0 -72 5 11 22 29 39 39 24 14
31 25 31 51 0 17 5 35 12 39 8 5 10 -12 5 -67 -3 -41 -3 -67 0 -59 3 8 10 26
15 39 8 23 9 23 28 6 20 -18 20 -17 20 33 0 33 4 52 11 52 9 0 10 -24 6 -82
l-5 -83 19 44 c16 36 22 41 34 31 13 -11 15 -4 15 48 0 34 4 63 9 67 17 10 21
-30 11 -110 -5 -43 -8 -81 -5 -83 3 -3 5 2 5 10 0 23 24 40 37 27 7 -7 12 20
17 88 8 103 19 142 29 103 3 -13 -1 -79 -10 -147 -11 -87 -13 -127 -5 -135 18
-18 30 0 37 55 13 99 44 280 50 285 10 11 4 -66 -16 -202 -16 -113 -17 -141
-7 -147 21 -13 28 -11 37 14 8 19 61 327 61 350 0 7 -52 7 -120 0z m-195 -103
c3 -5 -1 -10 -10 -10 -9 0 -13 5 -10 10 3 6 8 10 10 10 2 0 7 -4 10 -10z
m-235 -80 c0 -5 -2 -10 -4 -10 -3 0 -8 5 -11 10 -3 6 -1 10 4 10 6 0 11 -4 11
-10z m-320 -200 c0 -5 -7 -10 -16 -10 -8 0 -12 5 -9 10 3 6 10 10 16 10 5 0 9
-4 9 -10z m-153 -101 c-26 -18 -50 -29 -53 -26 -5 5 74 54 91 56 6 0 -12 -13
-38 -30z m-1692 -326 c4 -17 2 -29 -7 -34 -15 -10 -26 12 -27 55 -1 23 2 26
13 17 8 -7 17 -24 21 -38z"/>
<path d="M9945 6383 c-4 -43 -13 -110 -19 -150 -12 -69 -12 -72 8 -77 11 -3
22 -4 23 -2 2 2 13 59 24 127 11 68 22 131 25 140 3 13 -30 39 -50 39 -2 0 -7
-35 -11 -77z"/>
<path d="M10020 6403 c0 -16 -7 -66 -15 -112 -8 -46 -14 -86 -12 -88 2 -1 15
3 29 9 22 10 27 22 37 87 6 42 16 80 21 85 7 7 10 5 10 -5 0 -17 52 -19 57 -2
4 10 -93 53 -117 53 -6 0 -10 -12 -10 -27z"/>
<path d="M5305 6360 c-3 -5 -1 -10 4 -10 6 0 11 5 11 10 0 6 -2 10 -4 10 -3 0
-8 -4 -11 -10z"/>
<path d="M10160 6362 c0 -5 16 -16 35 -25 26 -12 33 -13 29 -3 -3 7 -16 18
-30 25 -30 13 -34 14 -34 3z"/>
<path d="M10222 6226 c-6 -13 -8 -35 -4 -47 5 -20 8 -16 13 21 8 53 6 58 -9
26z"/>
<path d="M5226 6214 c-10 -14 -16 -28 -13 -30 2 -3 12 7 21 22 10 14 16 28 13
30 -2 3 -12 -7 -21 -22z"/>
<path d="M9172 6220 c0 -14 2 -19 5 -12 2 6 2 18 0 25 -3 6 -5 1 -5 -13z"/>
<path d="M10061 6214 c0 -11 3 -14 6 -6 3 7 2 16 -1 19 -3 4 -6 -2 -5 -13z"/>
<path d="M5235 6114 c-68 -76 -158 -154 -177 -154 -5 0 12 17 39 39 55 43 97
90 119 133 17 32 11 48 -10 33 -7 -6 -49 -36 -92 -68 -46 -34 -163 -99 -281
-157 -197 -96 -274 -138 -398 -214 -33 -20 -121 -57 -195 -81 -293 -95 -444
-149 -431 -153 8 -3 3 -11 -16 -24 l-28 -19 42 6 c62 10 594 148 704 183 125
40 312 129 444 214 22 14 83 42 135 63 80 32 111 39 195 44 95 6 99 7 75 21
-18 11 -52 15 -122 14 l-97 -1 49 39 c45 35 128 144 118 154 -3 2 -35 -30 -73
-72z m-200 -164 c-3 -5 -12 -10 -18 -10 -7 0 -30 -12 -52 -27 -22 -15 -109
-60 -193 -100 -84 -39 -192 -94 -240 -121 -48 -28 -98 -53 -112 -56 -14 -4 11
12 54 34 43 23 86 50 95 60 20 24 243 140 335 175 38 14 81 32 95 40 31 17 44
19 36 5z"/>
<path d="M3980 6160 c14 -4 34 -8 45 -8 16 0 15 2 -5 8 -14 4 -34 8 -45 8 -16
0 -15 -2 5 -8z"/>
<path d="M3371 6134 c17 -16 41 -28 69 -31 73 -10 19 36 -60 51 l-35 6 26 -26z"/>
<path d="M9350 6140 c0 -6 7 -10 15 -10 8 0 15 2 15 4 0 2 -7 6 -15 10 -8 3
-15 1 -15 -4z"/>
<path d="M9840 6133 c0 -13 3 -14 12 -5 17 17 26 15 31 -5 4 -14 5 -12 6 5 1
17 -4 22 -24 22 -17 0 -25 -6 -25 -17z"/>
<path d="M9900 6130 c0 -6 11 -8 28 -4 39 10 40 14 4 14 -18 0 -32 -5 -32 -10z"/>
<path d="M9970 6124 c0 -13 3 -14 15 -4 8 7 22 10 30 6 9 -3 13 -2 10 4 -10
17 -55 12 -55 -6z"/>
<path d="M9090 6115 c0 -8 2 -15 4 -15 2 0 6 7 10 15 3 8 1 15 -4 15 -6 0 -10
-7 -10 -15z"/>
<path d="M9163 6105 c-9 -24 1 -27 15 -5 8 13 8 20 2 20 -6 0 -13 -7 -17 -15z"/>
<path d="M9310 6100 c0 -5 5 -10 10 -10 6 0 10 5 10 10 0 6 -4 10 -10 10 -5 0
-10 -4 -10 -10z"/>
<path d="M9345 6099 c-4 -6 -5 -12 -2 -15 2 -3 7 2 10 11 7 17 1 20 -8 4z"/>
<path d="M9410 6085 c0 -12 4 -14 19 -5 16 8 22 6 31 -7 10 -17 10 -16 8 2 -4
26 -58 35 -58 10z"/>
<path d="M9480 6079 c0 -5 5 -7 10 -4 6 3 10 8 10 11 0 2 -4 4 -10 4 -5 0 -10
-5 -10 -11z"/>
<path d="M9550 6071 c0 -5 -3 -18 -7 -28 -6 -17 -6 -17 10 -1 10 9 24 15 32
12 9 -4 15 0 15 10 0 10 -9 16 -25 16 -14 0 -25 -4 -25 -9z"/>
<path d="M9617 6060 c-3 -11 -4 -20 -3 -20 1 0 9 9 19 20 13 15 14 20 3 20 -7
0 -16 -9 -19 -20z"/>
<path d="M8973 6063 c9 -2 25 -2 35 0 9 3 1 5 -18 5 -19 0 -27 -2 -17 -5z"/>
<path d="M9660 6055 c0 -8 2 -15 4 -15 2 0 6 7 10 15 3 8 1 15 -4 15 -6 0 -10
-7 -10 -15z"/>
<path d="M9686 6055 c-4 -13 -2 -14 14 -5 26 14 28 13 33 -10 4 -17 4 -16 3 2
-1 28 -40 38 -50 13z"/>
<path d="M9080 6051 c0 -4 11 -6 25 -3 14 2 25 6 25 8 0 2 -11 4 -25 4 -14 0
-25 -4 -25 -9z"/>
<path d="M9141 6043 c-1 -12 4 -25 9 -28 12 -7 12 2 0 30 -8 19 -9 19 -9 -2z"/>
<path d="M9801 6044 c0 -11 3 -14 6 -6 3 7 2 16 -1 19 -3 4 -6 -2 -5 -13z"/>
<path d="M9960 6039 c0 -5 5 -7 10 -4 6 3 10 8 10 11 0 2 -4 4 -10 4 -5 0 -10
-5 -10 -11z"/>
<path d="M10096 6014 c-4 -9 -5 -18 -3 -20 1 -2 9 1 17 6 11 7 12 12 4 20 -8
8 -13 7 -18 -6z"/>
<path d="M9380 6000 c0 -11 4 -20 9 -20 5 0 7 9 4 20 -3 11 -7 20 -9 20 -2 0
-4 -9 -4 -20z"/>
<path d="M9367 5931 c3 -12 9 -21 14 -21 14 0 11 16 -5 29 -12 10 -13 8 -9 -8z"/>
<path d="M5285 5925 c-5 -1 -37 -9 -70 -16 -67 -14 -142 -44 -165 -64 -8 -8
-52 -32 -98 -54 -45 -23 -82 -44 -82 -47 0 -3 7 -4 15 0 8 3 15 1 15 -4 0 -4
-17 -14 -37 -21 -21 -6 -55 -27 -76 -45 -41 -37 -40 -45 1 -15 15 10 79 44
142 76 63 31 129 67 145 80 50 37 87 53 167 69 78 16 228 13 228 -5 0 -5 -8
-9 -17 -10 -10 0 5 -6 32 -13 28 -7 51 -11 53 -10 9 6 -26 45 -48 53 -44 17
-179 34 -205 26z"/>
<path d="M9510 5921 c0 -5 5 -13 10 -16 6 -3 10 -2 10 4 0 5 -4 13 -10 16 -5
3 -10 2 -10 -4z"/>
<path d="M9710 5888 c0 -15 18 -17 30 -3 9 11 8 14 -9 12 -12 -1 -21 -5 -21
-9z"/>
<path d="M9770 5889 c0 -5 5 -9 10 -9 6 0 10 -11 10 -24 0 -18 6 -25 22 -28
13 -2 24 -11 26 -20 3 -14 -6 -19 -40 -25 l-43 -7 35 -6 c19 -3 34 -11 33 -17
-2 -7 4 -10 12 -7 18 7 20 24 3 24 -8 1 -6 6 5 14 24 19 21 31 -15 60 -25 20
-30 28 -20 35 10 6 7 10 -12 13 -14 3 -26 1 -26 -3z"/>
<path d="M10048 5883 c7 -3 16 -2 19 1 4 3 -2 6 -13 5 -11 0 -14 -3 -6 -6z"/>
<path d="M9456 5871 c-4 -5 3 -7 14 -4 23 6 26 13 6 13 -8 0 -17 -4 -20 -9z"/>
<path d="M9597 5854 c12 -3 24 -13 27 -22 3 -12 4 -11 3 3 -2 14 -10 21 -27
22 -21 1 -21 1 -3 -3z"/>
<path d="M5245 5843 c-73 -16 -180 -59 -217 -87 -24 -18 -68 -48 -98 -68 -30
-19 -89 -63 -130 -98 -146 -123 -363 -256 -531 -325 -131 -54 -386 -147 -467
-171 -133 -38 -293 -29 -467 27 -100 32 -167 70 -238 136 -26 24 -52 41 -58
37 -15 -9 -5 -155 22 -349 11 -77 35 -268 54 -425 19 -157 46 -364 60 -460 16
-113 25 -221 25 -303 l0 -129 45 -82 c25 -46 45 -87 45 -91 0 -14 -188 3 -220
20 -36 19 -68 12 -158 -32 -58 -27 -60 -30 -100 -118 -54 -118 -98 -240 -116
-318 -15 -62 -17 -96 -13 -206 l2 -54 -50 -3 c-82 -5 -113 -13 -145 -41 -27
-22 -68 -83 -56 -83 2 0 27 15 55 34 46 31 154 66 166 54 3 -2 -4 -31 -15 -64
-51 -147 -36 -211 72 -307 35 -30 60 -58 56 -62 -13 -13 -82 9 -113 36 -18 16
-40 50 -50 76 -10 27 -20 51 -24 55 -3 4 -5 -52 -3 -125 2 -73 7 -136 13 -142
6 -5 9 -4 9 5 0 8 14 -2 30 -22 35 -42 78 -58 155 -58 100 0 151 59 165 192 9
88 17 118 31 118 4 0 6 8 2 18 -3 9 -2 14 2 9 5 -4 24 25 42 65 51 110 97 163
306 352 195 176 232 213 263 266 10 16 55 54 101 85 162 111 201 178 277 486
29 118 65 248 80 291 14 42 35 132 47 200 11 67 33 182 49 253 40 180 66 328
85 480 23 182 25 195 33 195 34 0 275 -234 320 -310 13 -22 33 -42 45 -46 12
-4 40 -21 62 -38 22 -18 105 -74 185 -126 168 -109 269 -191 396 -322 96 -98
129 -147 164 -240 21 -56 40 -76 40 -40 -1 61 -194 638 -257 767 -57 116 -70
126 -179 133 -82 5 -140 -10 -149 -39 -4 -10 -10 -19 -15 -19 -18 0 -62 57
-92 120 -17 36 -46 82 -64 103 -19 20 -34 47 -34 60 0 75 93 364 138 429 65
94 161 173 282 231 75 37 93 42 155 41 92 0 173 -19 221 -50 42 -28 160 -167
189 -224 10 -19 29 -49 42 -66 23 -30 26 -31 66 -22 24 5 56 22 75 41 32 31
95 144 87 157 -3 4 -35 10 -72 14 -113 10 -242 51 -276 86 -64 65 -66 48 -5
-27 76 -92 104 -133 91 -133 -11 0 -169 199 -166 209 1 4 -3 8 -10 9 -7 1 -43
10 -82 21 -66 19 -135 24 -180 14z"/>
<path d="M9642 5830 c0 -14 2 -19 5 -12 2 6 2 18 0 25 -3 6 -5 1 -5 -13z"/>
<path d="M9295 5829 c3 -4 -4 -11 -16 -14 -33 -11 -16 -16 19 -6 30 9 32 8 32
-15 0 -29 16 -32 25 -5 3 11 11 22 18 24 7 2 2 2 -10 0 -13 -2 -23 1 -23 6 0
5 -11 11 -25 13 -13 3 -22 2 -20 -3z"/>
<path d="M9740 5823 c0 -13 5 -23 10 -23 13 0 13 11 0 30 -8 12 -10 11 -10 -7z"/>
<path d="M9465 5820 c-3 -5 1 -10 10 -10 8 0 18 -7 21 -15 4 -8 10 -12 15 -9
5 3 9 0 9 -5 0 -6 4 -11 10 -11 5 0 6 7 3 17 -5 12 -3 14 7 8 9 -5 11 -4 6 4
-4 6 -15 10 -24 9 -9 -2 -16 3 -14 10 2 14 -34 16 -43 2z"/>
<path d="M9590 5800 c-9 -6 -10 -10 -3 -10 6 0 15 5 18 10 8 12 4 12 -15 0z"/>
<path d="M9680 5770 c0 -5 5 -10 10 -10 6 0 10 5 10 10 0 6 -4 10 -10 10 -5 0
-10 -4 -10 -10z"/>
<path d="M9916 5764 c-4 -9 -4 -19 -1 -22 3 -3 5 0 5 6 0 7 15 12 33 13 27 0
29 2 12 9 -30 13 -42 12 -49 -6z"/>
<path d="M10118 5773 c7 -3 16 -2 19 1 4 3 -2 6 -13 5 -11 0 -14 -3 -6 -6z"/>
<path d="M9610 5760 c0 -6 7 -10 15 -10 8 0 15 2 15 4 0 2 -7 6 -15 10 -8 3
-15 1 -15 -4z"/>
<path d="M10010 5757 c0 -10 8 -17 18 -17 9 0 13 4 7 8 -5 4 -13 11 -17 16 -5
5 -8 2 -8 -7z"/>
<path d="M9250 5720 c0 -5 7 -10 16 -10 8 0 12 5 9 10 -3 6 -10 10 -16 10 -5
0 -9 -4 -9 -10z"/>
<path d="M9556 5715 c-3 -8 -1 -15 4 -15 6 0 10 4 10 9 0 5 8 12 18 14 13 4
12 5 -4 6 -12 0 -24 -6 -28 -14z"/>
<path d="M9636 5715 c4 -8 8 -15 10 -15 2 0 4 7 4 15 0 8 -4 15 -10 15 -5 0
-7 -7 -4 -15z"/>
<path d="M9660 5710 c0 -19 3 -21 12 -12 9 9 9 15 0 24 -9 9 -12 7 -12 -12z"/>
<path d="M9698 5723 c7 -3 16 -2 19 1 4 3 -2 6 -13 5 -11 0 -14 -3 -6 -6z"/>
<path d="M9750 5721 c-37 -10 -11 -18 35 -10 22 3 35 7 28 8 -6 0 -17 3 -25 5
-7 2 -24 1 -38 -3z"/>
<path d="M9303 5703 c9 -3 17 -11 17 -19 0 -19 6 -18 29 5 18 18 18 19 -23 18
-22 0 -33 -2 -23 -4z"/>
<path d="M9481 5682 c14 -9 24 -23 22 -29 -3 -7 0 -13 6 -13 6 0 11 4 11 9 0
5 3 17 7 27 5 13 3 16 -10 11 -9 -3 -19 -2 -22 3 -4 6 -14 10 -23 10 -13 0
-10 -5 9 -18z"/>
<path d="M8001 5674 c0 -11 3 -14 6 -6 3 7 2 16 -1 19 -3 4 -6 -2 -5 -13z"/>
<path d="M9547 5660 c3 -11 7 -20 9 -20 2 0 4 9 4 20 0 11 -4 20 -9 20 -5 0
-7 -9 -4 -20z"/>
<path d="M9593 5673 c9 -2 23 -2 30 0 6 3 -1 5 -18 5 -16 0 -22 -2 -12 -5z"/>
<path d="M9798 5673 c7 -3 16 -2 19 1 4 3 -2 6 -13 5 -11 0 -14 -3 -6 -6z"/>
<path d="M9718 5643 c5 -26 22 -31 22 -8 0 19 56 21 63 3 4 -8 6 -7 6 4 1 12
-10 17 -47 20 -45 3 -48 2 -44 -19z"/>
<path d="M10095 5659 c4 -5 22 -9 42 -9 45 0 40 5 -10 13 -22 3 -35 2 -32 -4z"/>
<path d="M9210 5649 c0 -5 5 -7 10 -4 6 3 10 8 10 11 0 2 -4 4 -10 4 -5 0 -10
-5 -10 -11z"/>
<path d="M9277 5630 c-3 -13 0 -20 9 -20 8 0 14 9 14 20 0 11 -4 20 -9 20 -5
0 -11 -9 -14 -20z"/>
<path d="M9337 5643 c-11 -10 -8 -43 4 -43 5 0 7 5 3 12 -4 6 1 17 11 25 15
10 16 13 4 13 -9 0 -19 -3 -22 -7z"/>
<path d="M9450 5640 c0 -5 7 -10 16 -10 8 0 12 5 9 10 -3 6 -10 10 -16 10 -5
0 -9 -4 -9 -10z"/>
<path d="M9578 5613 c6 -2 18 -2 25 0 6 3 1 5 -13 5 -14 0 -19 -2 -12 -5z"/>
<path d="M9824 5602 c11 -12 19 -13 27 -5 7 7 3 12 -16 15 -25 5 -25 4 -11
-10z"/>
<path d="M9628 5588 c2 -10 6 -18 7 -18 1 0 5 8 7 18 3 11 0 19 -7 19 -7 0
-10 -8 -7 -19z"/>
<path d="M9671 5594 c0 -11 3 -14 6 -6 3 7 2 16 -1 19 -3 4 -6 -2 -5 -13z"/>
<path d="M9742 5598 c-6 -6 -12 -19 -12 -27 0 -11 3 -11 14 4 9 12 20 16 35
12 14 -3 21 -1 18 6 -5 17 -40 20 -55 5z"/>
<path d="M9435 5590 c-18 -8 -17 -9 8 -9 16 -1 26 3 22 9 -3 6 -7 10 -8 9 -1
0 -11 -4 -22 -9z"/>
<path d="M9268 5565 c-5 -22 -2 -25 22 -25 21 0 29 6 32 23 4 19 0 23 -23 25
-21 2 -28 -3 -31 -23z"/>
<path d="M9962 5550 c0 -14 2 -19 5 -12 2 6 2 18 0 25 -3 6 -5 1 -5 -13z"/>
<path d="M10088 5563 c7 -3 16 -2 19 1 4 3 -2 6 -13 5 -11 0 -14 -3 -6 -6z"/>
<path d="M9537 5541 c-4 -17 -3 -21 5 -13 5 5 8 16 6 23 -3 8 -7 3 -11 -10z"/>
<path d="M9560 5543 c0 -12 3 -14 8 -7 4 7 18 14 32 17 21 4 20 4 -7 6 -25 1
-33 -3 -33 -16z"/>
<path d="M9638 5544 c-14 -13 -8 -44 8 -44 8 0 13 4 10 9 -3 5 1 15 10 22 12
10 20 10 35 1 11 -7 30 -10 43 -6 18 4 25 1 29 -13 4 -15 5 -14 6 5 1 17 -4
22 -23 22 -13 0 -43 3 -67 6 -24 3 -47 2 -51 -2z"/>
<path d="M9611 5524 c0 -11 3 -14 6 -6 3 7 2 16 -1 19 -3 4 -6 -2 -5 -13z"/>
<path d="M9126 5522 c-2 -4 11 -6 30 -4 32 4 40 -3 35 -30 0 -5 4 -8 9 -8 16
0 11 37 -6 44 -22 9 -62 7 -68 -2z"/>
<path d="M9838 5523 c7 -3 16 -2 19 1 4 3 -2 6 -13 5 -11 0 -14 -3 -6 -6z"/>
<path d="M9874 5515 c-3 -8 -4 -20 -2 -27 3 -7 7 -1 10 15 6 29 1 36 -8 12z"/>
<path d="M9270 5510 c0 -25 17 -43 43 -46 20 -2 24 1 19 18 -3 11 1 24 9 29 9
6 3 8 -18 6 -18 -1 -33 -6 -33 -12 0 -5 -5 -3 -10 5 -9 13 -10 13 -10 0z"/>
<path d="M9400 5503 c0 -5 15 -8 34 -8 19 0 32 3 29 8 -2 4 -17 7 -34 7 -16 0
-29 -3 -29 -7z"/>
<path d="M9998 5503 c7 -3 16 -2 19 1 4 3 -2 6 -13 5 -11 0 -14 -3 -6 -6z"/>
<path d="M9490 5491 c0 -5 9 -7 21 -4 12 4 25 0 30 -8 7 -11 9 -10 9 4 0 12
-8 17 -30 17 -16 0 -30 -4 -30 -9z"/>
<path d="M10073 5493 c9 -2 25 -2 35 0 9 3 1 5 -18 5 -19 0 -27 -2 -17 -5z"/>
<path d="M9560 5479 c0 -5 5 -7 10 -4 6 3 10 8 10 11 0 2 -4 4 -10 4 -5 0 -10
-5 -10 -11z"/>
<path d="M9611 5464 c0 -11 3 -14 6 -6 3 7 2 16 -1 19 -3 4 -6 -2 -5 -13z"/>
<path d="M9640 5455 c0 -20 5 -25 24 -25 24 0 41 23 30 41 -3 5 -16 9 -30 9
-19 0 -24 -5 -24 -25z"/>
<path d="M9727 5474 c-4 -4 -7 -18 -7 -31 0 -20 5 -24 23 -21 16 2 22 10 22
28 0 24 -23 39 -38 24z"/>
<path d="M9038 5463 c7 -3 16 -2 19 1 4 3 -2 6 -13 5 -11 0 -14 -3 -6 -6z"/>
<path d="M9797 5463 c-14 -14 -6 -41 14 -46 14 -4 23 1 28 16 5 12 7 25 4 30
-5 9 -37 9 -46 0z"/>
<path d="M9192 5442 c6 -7 14 -9 17 -4 3 5 13 12 21 15 8 3 1 4 -17 4 -24 -2
-29 -5 -21 -15z"/>
<path d="M9863 5444 c-3 -8 -1 -20 6 -27 8 -8 11 -5 11 12 0 19 4 23 25 19 13
-3 22 -1 19 3 -9 15 -54 10 -61 -7z"/>
<path d="M3738 5443 c7 -3 16 -2 19 1 4 3 -2 6 -13 5 -11 0 -14 -3 -6 -6z"/>
<path d="M9261 5434 c0 -11 3 -14 6 -6 3 7 2 16 -1 19 -3 4 -6 -2 -5 -13z"/>
<path d="M9280 5433 c0 -12 3 -14 8 -7 4 7 16 14 27 17 15 4 14 5 -7 6 -21 1
-28 -4 -28 -16z"/>
<path d="M9485 5440 c-4 -6 -23 -7 -46 -4 -38 6 -39 6 -39 -24 0 -17 6 -33 13
-35 6 -3 0 -6 -15 -6 -20 -1 -28 -6 -28 -18 0 -13 -4 -11 -13 7 -11 22 -18 24
-57 21 -25 -1 -46 -4 -47 -5 -9 -9 -6 -50 5 -53 6 -3 12 1 12 9 0 29 17 40 49
33 22 -5 33 -14 37 -31 6 -25 7 -25 21 -4 17 24 63 28 63 5 0 -9 -10 -20 -22
-25 -21 -8 -21 -9 -3 -10 11 -1 41 -5 67 -9 26 -4 45 -4 43 0 -3 3 2 12 10 19
8 7 12 16 9 22 -3 5 -12 4 -20 -3 -11 -9 -14 -9 -14 0 0 20 -33 48 -38 33 -2
-6 -8 -12 -13 -12 -19 0 -7 25 30 62 31 30 35 38 21 38 -10 0 -22 -5 -25 -10z
m-35 -25 c0 -8 -4 -15 -10 -15 -5 0 -10 7 -10 15 0 8 5 15 10 15 6 0 10 -7 10
-15z m50 -95 c0 -13 -7 -20 -20 -20 -19 0 -27 20 -13 33 13 14 33 6 33 -13z"/>
<path d="M9516 5423 c5 -5 12 -12 16 -18 4 -6 8 -2 8 8 0 9 -7 17 -17 17 -9 0
-12 -3 -7 -7z"/>
<path d="M9550 5405 c0 -8 2 -15 4 -15 2 0 6 7 10 15 3 8 1 15 -4 15 -6 0 -10
-7 -10 -15z"/>
<path d="M9278 5398 c5 -5 16 -8 23 -6 8 3 3 7 -10 11 -17 4 -21 3 -13 -5z"/>
<path d="M9633 5371 c4 -36 3 -41 -14 -41 -10 0 -19 -7 -19 -15 0 -8 7 -15 15
-15 8 0 15 -4 15 -10 0 -17 -28 -11 -39 8 -9 15 -10 15 -11 1 0 -9 7 -20 16
-23 26 -10 104 -7 104 4 0 6 5 10 10 10 6 0 10 -7 10 -15 0 -17 18 -22 119
-30 49 -4 71 -3 67 4 -4 6 2 19 14 31 l20 20 -21 0 c-18 0 -21 4 -16 28 3 15
8 34 12 43 5 12 -1 18 -22 22 -35 7 -43 2 -43 -29 0 -18 5 -24 21 -24 11 0 17
-4 14 -10 -10 -16 -65 -12 -65 4 0 8 5 18 10 21 6 3 10 15 10 26 0 14 -7 19
-25 19 -21 0 -25 -5 -25 -29 0 -16 6 -32 13 -34 6 -3 0 -6 -15 -6 -25 -1 -26
1 -21 33 4 27 2 34 -15 38 -12 3 -23 3 -26 0 -12 -11 -6 -43 9 -48 23 -9 18
-24 -9 -24 -20 0 -23 4 -22 38 1 36 0 37 -38 40 l-39 3 6 -40z m267 -1 c0 -5
-4 -10 -10 -10 -5 0 -10 5 -10 10 0 6 5 10 10 10 6 0 10 -4 10 -10z"/>
<path d="M8998 5393 c7 -3 16 -2 19 1 4 3 -2 6 -13 5 -11 0 -14 -3 -6 -6z"/>
<path d="M9935 5379 c-4 -6 -5 -12 -2 -15 2 -3 7 2 10 11 7 17 1 20 -8 4z"/>
<path d="M9183 5358 c-2 -18 0 -20 7 -8 12 18 13 30 2 30 -4 0 -9 -10 -9 -22z"/>
<path d="M8820 5325 c0 -8 2 -15 4 -15 2 0 6 7 10 15 3 8 1 15 -4 15 -6 0 -10
-7 -10 -15z"/>
<path d="M9287 5279 c4 -13 8 -18 11 -10 2 7 -1 18 -6 23 -8 8 -9 4 -5 -13z"/>
<path d="M9958 5293 c7 -3 16 -2 19 1 4 3 -2 6 -13 5 -11 0 -14 -3 -6 -6z"/>
<path d="M9361 5262 c-10 -18 -7 -20 35 -24 40 -3 44 -1 42 17 -4 29 -63 34
-77 7z"/>
<path d="M9501 5265 c1 -19 18 -51 18 -35 0 8 -4 22 -9 30 -5 8 -9 11 -9 5z"/>
<path d="M3962 5224 c-99 -29 -245 -84 -239 -90 12 -13 337 95 337 111 0 8 -9
6 -98 -21z"/>
<path d="M9710 5221 c0 -11 3 -22 8 -24 4 -3 7 6 7 19 0 13 -3 24 -7 24 -5 0
-8 -9 -8 -19z"/>
<path d="M9756 5225 c4 -8 8 -15 10 -15 2 0 4 7 4 15 0 8 -4 15 -10 15 -5 0
-7 -7 -4 -15z"/>
<path d="M9834 5222 c-21 -14 -23 -38 -3 -39 13 -1 19 5 19 18 0 14 5 19 18
17 10 -2 16 -11 14 -23 -2 -19 -2 -19 9 -1 9 14 8 20 -2 27 -17 11 -40 11 -55
1z"/>
<path d="M9781 5204 c0 -11 3 -14 6 -6 3 7 2 16 -1 19 -3 4 -6 -2 -5 -13z"/>
<path d="M9421 5194 c0 -11 3 -14 6 -6 3 7 2 16 -1 19 -3 4 -6 -2 -5 -13z"/>
<path d="M10004 5195 c-3 -8 -4 -20 -2 -27 3 -7 7 -1 10 15 6 29 1 36 -8 12z"/>
<path d="M9490 5188 c1 -29 15 -36 27 -12 10 21 9 24 -8 24 -10 0 -19 -6 -19
-12z"/>
<path d="M9625 5165 c0 -13 2 -23 5 -23 3 1 13 -2 22 -6 10 -4 23 -6 30 -3 7
3 3 6 -9 6 -26 1 -27 4 -13 32 7 13 7 19 0 19 -5 0 -10 -5 -10 -11 0 -8 -4 -8
-12 -1 -10 8 -13 5 -13 -13z"/>
<path d="M9698 5155 c2 -14 6 -25 7 -25 1 0 5 11 7 25 3 16 1 25 -7 25 -8 0
-10 -9 -7 -25z"/>
<path d="M8728 5163 c7 -3 16 -2 19 1 4 3 -2 6 -13 5 -11 0 -14 -3 -6 -6z"/>
<path d="M8760 5155 c-10 -12 -10 -15 4 -15 9 0 16 7 16 15 0 8 -2 15 -4 15
-2 0 -9 -7 -16 -15z"/>
<path d="M9570 5161 c0 -6 4 -13 10 -16 6 -3 7 1 4 9 -7 18 -14 21 -14 7z"/>
<path d="M9770 5155 c0 -8 2 -15 4 -15 2 0 6 7 10 15 3 8 1 15 -4 15 -6 0 -10
-7 -10 -15z"/>
<path d="M9811 5154 c0 -11 3 -14 6 -6 3 7 2 16 -1 19 -3 4 -6 -2 -5 -13z"/>
<path d="M10507 5149 c-12 -16 -13 -24 -4 -34 10 -10 14 -7 20 17 10 38 3 46
-16 17z"/>
<path d="M9872 5133 c3 -27 28 -46 28 -21 0 25 20 36 51 28 16 -5 29 -5 29 -1
0 8 -57 21 -93 21 -14 0 -18 -6 -15 -27z"/>
<path d="M9291 5124 c0 -11 3 -14 6 -6 3 7 2 16 -1 19 -3 4 -6 -2 -5 -13z"/>
<path d="M9368 5133 c6 -2 18 -2 25 0 6 3 1 5 -13 5 -14 0 -19 -2 -12 -5z"/>
<path d="M9997 5133 c-4 -3 -7 -11 -7 -17 0 -7 3 -7 8 0 4 7 16 14 27 17 19 5
19 5 -1 6 -11 0 -24 -2 -27 -6z"/>
<path d="M9412 5110 c0 -14 2 -19 5 -12 2 6 2 18 0 25 -3 6 -5 1 -5 -13z"/>
<path d="M9438 5123 c6 -2 18 -2 25 0 6 3 1 5 -13 5 -14 0 -19 -2 -12 -5z"/>
<path d="M8888 5113 c7 -3 16 -2 19 1 4 3 -2 6 -13 5 -11 0 -14 -3 -6 -6z"/>
<path d="M9492 5095 c15 -28 15 -28 20 -1 4 19 1 24 -13 23 -14 -1 -16 -5 -7
-22z"/>
<path d="M9582 5108 c-7 -7 -12 -21 -12 -32 0 -19 1 -19 13 -1 14 18 43 13 32
-6 -4 -5 -1 -9 4 -9 17 0 13 47 -5 54 -20 8 -18 8 -32 -6z"/>
<path d="M9642 5084 c2 -25 8 -29 36 -32 27 -3 32 0 32 17 0 13 6 21 17 21 32
0 5 11 -41 17 -47 5 -48 5 -44 -23z"/>
<path d="M9757 5093 c-4 -3 -7 -17 -7 -30 0 -16 6 -23 19 -23 10 0 32 -3 48
-6 21 -4 32 -2 36 8 8 22 -4 35 -40 43 -26 5 -33 3 -33 -9 0 -8 -5 -18 -10
-21 -7 -4 -9 2 -4 19 6 26 3 32 -9 19z"/>
<path d="M8790 5086 c0 -3 9 -21 21 -40 16 -28 27 -36 50 -36 16 0 29 5 29 10
0 6 -6 10 -13 10 -8 0 -22 9 -33 21 -19 21 -54 44 -54 35z"/>
<path d="M9887 5059 c6 -22 23 -26 23 -5 0 8 -6 16 -14 19 -10 4 -12 0 -9 -14z"/>
<path d="M10486 5059 c-12 -18 -15 -19 -18 -4 -2 11 -28 -18 -75 -82 -82 -113
-123 -157 -209 -219 -89 -64 -199 -113 -304 -134 -51 -10 -95 -21 -98 -24 -8
-9 85 4 152 21 65 16 87 11 32 -7 -20 -6 -36 -15 -36 -20 0 -12 -52 -22 -150
-29 l-85 -7 140 -7 c139 -8 141 -8 234 22 106 35 230 106 310 178 47 43 53 51
43 69 -16 30 -8 97 16 136 53 83 91 167 48 107z"/>
<path d="M10160 5036 c0 -2 7 -9 15 -16 12 -10 15 -10 15 4 0 9 -7 16 -15 16
-8 0 -15 -2 -15 -4z"/>
<path d="M8938 5013 c6 -2 18 -2 25 0 6 3 1 5 -13 5 -14 0 -19 -2 -12 -5z"/>
<path d="M8990 5016 c0 -2 11 -6 25 -8 13 -3 22 -1 19 3 -5 9 -44 13 -44 5z"/>
<path d="M9226 5011 c-4 -5 3 -7 14 -4 23 6 26 13 6 13 -8 0 -17 -4 -20 -9z"/>
<path d="M9732 5013 c18 -4 31 -30 23 -43 -3 -4 1 -10 8 -13 8 -3 13 4 12 22
0 30 -11 41 -40 40 -16 -1 -16 -2 -3 -6z"/>
<path d="M9891 4974 c0 -11 3 -14 6 -6 3 7 2 16 -1 19 -3 4 -6 -2 -5 -13z"/>
<path d="M10050 4720 c0 -5 7 -10 16 -10 8 0 12 5 9 10 -3 6 -10 10 -16 10 -5
0 -9 -4 -9 -10z"/>
<path d="M9243 4657 c40 -34 252 -68 407 -65 l115 1 -150 8 c-157 8 -256 24
-346 59 l-54 20 28 -23z"/>
<path d="M6151 4333 c-1 -7 -7 -13 -15 -13 -15 0 -41 -56 -76 -160 -12 -36
-35 -96 -52 -135 -30 -67 -30 -71 -14 -98 23 -40 32 -185 17 -273 -22 -126
-102 -464 -151 -633 -158 -552 -263 -881 -372 -1176 -63 -170 -75 -221 -59
-247 12 -19 11 -20 -5 -14 -94 36 -241 33 -324 -7 -52 -25 -181 -126 -188
-147 -2 -6 4 -10 13 -10 9 0 43 26 74 59 64 65 142 108 213 117 64 9 153 -4
179 -25 22 -18 22 -19 6 -78 -20 -69 -20 -76 -7 -68 6 3 10 18 10 32 0 14 24
80 54 147 54 122 98 248 180 516 73 241 245 786 260 827 30 78 118 455 157
673 22 124 59 306 84 405 44 182 58 279 40 282 -5 1 -12 10 -16 20 -4 10 -8
12 -8 6z"/>
<path d="M2386 2478 c-8 -18 -17 -53 -21 -78 -6 -41 -5 -43 7 -25 18 25 48
100 48 120 0 27 -21 16 -34 -17z"/>
<path d="M2400 2104 c0 -15 43 -64 56 -64 17 0 19 -16 2 -23 -31 -13 22 -27
92 -26 41 1 85 1 96 0 28 -1 38 -37 16 -51 -24 -13 3 -13 31 1 12 6 1 -9 -24
-33 -42 -40 -46 -47 -45 -90 1 -31 8 -54 21 -68 11 -12 19 -24 18 -26 -7 -10
-2 -34 7 -34 6 0 10 9 10 20 0 13 20 33 63 60 l62 40 -46 -6 c-30 -4 -49 -2
-53 5 -10 15 35 31 87 31 48 0 66 9 65 30 -2 35 3 50 17 50 8 0 15 5 15 10 0
16 -20 12 -47 -10 -14 -11 -32 -20 -39 -20 -8 0 -13 -5 -12 -12 2 -6 -6 -14
-17 -16 -16 -4 -17 -2 -7 10 6 8 10 17 7 20 -3 3 15 16 40 29 25 13 45 28 45
32 0 4 -9 3 -19 -3 -32 -17 -44 -12 -38 16 3 18 1 22 -6 15 -17 -17 -29 -13
-22 8 4 15 -1 19 -32 25 -21 3 -64 6 -95 6 -44 0 -58 4 -58 14 0 31 -30 46
-91 46 -33 0 -69 5 -80 10 -10 6 -19 8 -19 4z m360 -124 c0 -5 -9 -14 -20 -20
-19 -10 -20 -10 -8 9 13 22 28 28 28 11z m-100 -191 c0 -11 -4 -17 -10 -14 -5
3 -10 13 -10 21 0 8 5 14 10 14 6 0 10 -9 10 -21z"/>
<path d="M2931 2076 c-9 -10 -9 -16 -1 -21 17 -10 37 12 24 25 -8 8 -15 6 -23
-4z"/>
<path d="M2891 1989 c-14 -32 -7 -54 9 -29 9 13 14 60 7 60 -1 0 -8 -14 -16
-31z"/>
<path d="M2598 1943 c-9 -2 -15 -10 -12 -18 3 -7 -3 -15 -13 -18 -10 -3 -1 -5
19 -6 20 0 40 4 43 9 3 6 -1 10 -10 10 -11 0 -15 5 -11 15 3 8 4 14 3 14 -1
-1 -10 -3 -19 -6z"/>
<path d="M2883 1874 c-15 -16 -17 -44 -4 -44 6 0 13 5 17 11 4 8 9 7 15 -2 7
-11 9 -10 9 4 0 9 -5 17 -11 17 -5 0 -8 4 -4 9 9 16 -9 20 -22 5z"/>
<path d="M2888 1813 c7 -3 16 -2 19 1 4 3 -2 6 -13 5 -11 0 -14 -3 -6 -6z"/>
<path d="M2811 1784 c-20 -25 -28 -54 -16 -54 3 0 17 12 31 27 21 22 27 25 34
13 7 -11 12 -12 21 -3 9 9 8 15 -4 27 -23 23 -43 20 -66 -10z"/>
<path d="M2955 1740 c-8 -13 15 -13 35 0 12 8 11 10 -7 10 -12 0 -25 -4 -28
-10z"/>
<path d="M2810 1705 c-34 -36 -21 -39 20 -4 22 18 29 29 19 29 -8 0 -26 -11
-39 -25z"/>
<path d="M2820 1665 c-24 -25 -40 -45 -34 -45 5 0 30 20 54 45 24 25 40 45 34
45 -5 0 -30 -20 -54 -45z"/>
<path d="M2590 1672 c0 -10 4 -22 9 -27 4 -6 11 -22 15 -37 5 -21 2 -28 -15
-33 -11 -4 -19 -9 -17 -11 2 -2 29 4 60 12 42 12 55 20 51 31 -4 10 -9 11 -16
4 -16 -16 -37 -13 -37 4 0 8 -4 15 -10 15 -5 0 -10 7 -10 15 0 8 5 15 10 15 6
0 10 7 10 15 0 9 -9 15 -25 15 -17 0 -25 -5 -25 -18z"/>
<path d="M2833 1504 c-109 -30 -219 -71 -211 -79 7 -8 344 28 356 37 6 6 12
26 12 44 0 42 1 42 -157 -2z"/>
<path d="M2865 1397 c-44 -17 -73 -33 -64 -35 9 -1 49 13 90 32 93 43 79 45
-26 3z"/>
<path d="M5519 1396 c-19 -13 -46 -45 -59 -70 -23 -42 -24 -66 -1 -52 14 9
104 137 99 141 -2 3 -20 -6 -39 -19z"/>
<path d="M2420 1385 c0 -18 64 -123 130 -217 72 -102 140 -162 203 -179 111
-30 314 35 291 94 -5 13 -10 12 -40 -8 -47 -32 -200 -60 -253 -45 -90 24 -192
123 -268 260 -45 79 -63 108 -63 95z"/>
<path d="M2526 1330 c34 -85 129 -198 150 -178 5 6 -97 153 -141 203 l-35 40
26 -65z"/>
<path d="M5382 1370 c0 -14 2 -19 5 -12 2 6 2 18 0 25 -3 6 -5 1 -5 -13z"/>
<path d="M5554 1293 c-57 -72 -58 -73 -45 -73 18 0 89 72 96 98 10 36 -11 26
-51 -25z"/>
<path d="M5470 1183 c0 -6 8 -17 18 -24 16 -13 16 -13 2 6 -8 11 -16 22 -17
24 -2 2 -3 0 -3 -6z"/>
<path d="M5573 1083 c9 -2 25 -2 35 0 9 3 1 5 -18 5 -19 0 -27 -2 -17 -5z"/>
<path d="M4502 843 c-5 -66 122 -194 253 -253 63 -29 192 -75 236 -84 18 -4
31 -18 44 -45 36 -81 91 -109 360 -181 282 -75 358 -77 405 -10 39 55 20 87
-85 138 -83 41 -192 74 -390 117 -181 40 -228 55 -260 85 -45 41 -445 232
-535 255 -22 5 -26 3 -28 -22z"/>
<path d="M4830 847 c0 -3 40 -35 88 -70 49 -36 100 -79 115 -96 44 -52 65 -34
27 24 -11 17 -20 39 -20 50 0 28 -19 45 -47 45 -20 0 -85 20 -145 45 -10 4
-18 5 -18 2z"/>
</g>
</svg>
