<?xml version="1.0" standalone="no"?>
<!DOCTYPE svg PUBLIC "-//W3C//DTD SVG 20010904//EN"
 "http://www.w3.org/TR/2001/REC-SVG-20010904/DTD/svg10.dtd">
<svg version="1.0" xmlns="http://www.w3.org/2000/svg"
 width="497.000000pt" height="246.000000pt" viewBox="0 0 497.000000 246.000000"
 preserveAspectRatio="xMidYMid meet">

<g transform="translate(0.000000,246.000000) scale(0.100000,-0.100000)"
fill="#000000" stroke="none">
<path d="M0 1230 l0 -1230 308 0 c198 0 302 4 292 10 -8 5 -15 24 -15 42 0 27
-4 33 -21 33 -42 0 -78 56 -46 74 13 7 12 10 -5 20 -15 8 -21 20 -21 48 1 65
-2 84 -10 79 -4 -2 -16 2 -26 9 -13 10 -17 21 -12 39 5 20 3 26 -10 26 -12 0
-15 7 -12 25 3 14 -3 35 -15 52 -13 19 -17 22 -13 8 6 -20 6 -20 -9 -1 -8 11
-12 29 -9 43 4 13 1 30 -6 38 -7 8 -10 24 -7 35 4 16 0 20 -18 20 -38 0 -40
20 -3 21 l33 0 -42 19 c-30 14 -43 25 -43 40 0 11 -4 20 -8 20 -4 0 -8 8 -9
18 0 9 -1 31 -2 47 -1 17 1 49 5 72 4 28 2 48 -6 57 -7 9 -9 27 -5 45 5 24 2
32 -15 41 -17 9 -21 19 -18 43 3 18 9 41 13 51 6 13 5 17 -2 13 -15 -10 -35
17 -27 38 4 9 8 26 9 38 4 36 5 37 16 37 6 0 18 7 26 16 9 9 26 14 40 11 14
-3 23 1 23 8 0 13 -64 230 -79 270 -7 18 -17 20 -122 18 -123 -2 -109 13 16
17 39 1 61 4 50 7 -32 8 -37 18 -40 73 -2 32 1 47 6 39 7 -11 9 -10 9 4 0 10
-7 20 -15 23 -8 4 -12 10 -9 15 6 11 34 -14 34 -30 0 -6 5 -11 11 -11 7 0 5
10 -5 25 -21 32 -20 35 6 30 12 -3 30 2 39 11 10 9 43 17 80 20 34 3 70 9 80
15 12 6 19 5 22 -4 4 -8 8 -8 14 -2 12 15 36 17 30 3 -2 -7 -10 -12 -16 -10
-6 1 -11 -2 -11 -7 0 -13 28 -22 32 -10 2 6 61 13 131 16 70 3 127 9 127 12 0
3 48 7 106 8 58 1 111 6 118 12 7 6 15 8 18 6 3 -3 25 1 49 9 24 8 65 17 92
21 26 3 47 10 47 14 0 4 60 15 133 24 72 10 151 20 175 23 38 6 42 5 42 -15 0
-16 -6 -21 -27 -21 l-28 -1 25 -14 c16 -9 19 -15 10 -15 -10 -1 -8 -4 5 -10
11 -4 24 -4 30 1 5 5 20 9 33 9 15 0 22 5 19 13 -2 6 -16 11 -31 10 -14 -1
-26 1 -26 3 0 18 24 43 49 52 35 12 71 -8 71 -39 0 -11 5 -17 10 -14 6 3 7 18
4 32 l-7 26 119 -6 c163 -7 228 -22 577 -131 31 -10 60 -9 140 1 98 12 160 12
87 -1 -68 -11 -216 -34 -338 -52 l-123 -18 46 -18 c26 -10 55 -16 64 -13 20 6
89 17 119 19 12 0 22 3 22 6 0 10 93 3 122 -8 14 -6 29 -16 33 -21 8 -15 42
-14 47 1 3 8 9 8 24 -1 15 -10 15 -11 2 -7 -10 3 -18 1 -18 -3 0 -12 32 -23
39 -14 3 4 12 9 20 11 9 2 12 -4 8 -18 -3 -12 -1 -20 6 -19 7 1 26 -4 42 -11
17 -7 71 -13 122 -14 50 -1 89 -4 87 -7 -2 -3 9 -6 24 -7 48 -1 166 -28 215
-50 26 -11 47 -19 47 -16 0 3 10 -1 22 -7 13 -7 36 -16 53 -20 83 -21 152 -40
170 -48 49 -22 91 -36 101 -33 6 1 55 -14 108 -33 53 -19 108 -35 121 -35 14
0 25 -4 25 -9 0 -5 31 -17 70 -27 38 -10 70 -22 70 -27 0 -4 4 -6 9 -2 5 3 17
-2 25 -11 11 -10 16 -11 16 -3 0 8 6 7 18 -4 9 -8 19 -15 22 -15 3 0 36 -9 74
-21 37 -11 79 -21 92 -21 13 0 24 -4 24 -10 0 -5 7 -10 16 -10 8 0 12 -5 9
-11 -4 -6 -1 -10 6 -8 28 3 48 -1 62 -15 8 -8 27 -16 43 -18 18 -2 28 -8 26
-16 -1 -8 2 -11 8 -7 6 4 18 1 27 -7 12 -9 15 -9 9 0 -10 17 -2 15 24 -8 13
-11 29 -20 35 -20 7 0 15 -7 19 -15 4 -10 15 -13 38 -10 28 5 30 4 11 -4 -29
-13 -29 -21 0 -14 18 4 19 3 7 -7 -12 -10 -11 -11 8 -7 12 3 20 1 16 -4 -3 -5
2 -9 10 -9 10 0 13 6 10 18 -4 13 -2 12 7 -3 6 -11 12 -21 13 -21 1 -1 12 -5
25 -9 15 -5 21 -3 17 3 -4 6 2 8 15 5 13 -4 16 -8 9 -13 -6 -3 55 -28 134 -54
146 -47 172 -60 139 -69 -97 -26 -111 -32 -100 -40 7 -5 4 -6 -9 -2 -12 3 -32
1 -45 -4 l-24 -10 25 -1 25 -1 -23 -10 c-13 -5 -36 -10 -52 -11 -40 -3 -29
-10 20 -12 23 -1 35 1 28 6 -8 5 -3 8 16 8 25 0 27 -2 15 -17 -10 -11 -10 -14
-1 -9 7 4 12 2 12 -4 0 -7 -8 -9 -20 -5 -10 3 -27 2 -37 -4 -12 -6 -25 -6 -37
1 -13 7 -17 7 -12 0 3 -6 1 -12 -5 -14 -6 -2 -12 -16 -12 -31 -2 -28 -6 -31
-46 -27 -14 1 -21 -2 -17 -9 4 -6 17 -11 29 -11 16 0 18 -3 9 -12 -9 -9 -15
-9 -24 0 -19 19 -44 14 -69 -13 -17 -18 -35 -25 -64 -26 -22 0 -34 -3 -27 -6
24 -10 11 -23 -23 -23 -19 0 -35 5 -35 10 0 6 -9 10 -20 10 -11 0 -20 -5 -20
-11 0 -33 -49 -43 -101 -21 -15 6 -43 14 -63 17 -20 4 -36 11 -36 15 0 4 -10
10 -21 13 -17 4 -19 3 -10 -6 17 -17 13 -31 -4 -17 -13 10 -18 11 -28 1 -9
-10 -8 -11 8 -5 12 4 17 3 12 -2 -11 -11 -78 -14 -71 -3 2 5 12 5 22 2 14 -4
13 -2 -3 11 l-20 17 20 -5 c27 -7 54 9 30 18 -9 3 -21 3 -26 0 -5 -3 -21 -7
-34 -10 -14 -2 -60 -15 -103 -28 -42 -13 -124 -38 -182 -56 -280 -85 -287 -87
-260 -98 17 -7 19 -11 8 -11 -9 -1 -20 4 -23 10 -4 6 -13 8 -19 6 -7 -3 -18
-2 -25 3 -8 4 15 16 60 29 121 36 332 102 359 111 14 5 44 14 68 20 23 6 42
14 42 19 0 4 14 8 31 8 17 0 34 4 37 9 4 5 21 10 37 12 25 3 120 29 260 71 17
5 74 22 128 37 53 15 97 30 97 34 0 3 -33 17 -72 30 -40 13 -77 27 -83 31 -5
4 -26 10 -45 14 -19 4 -39 11 -45 15 -5 4 -30 8 -53 7 -28 0 -39 -3 -30 -8 19
-13 6 -11 -39 5 -33 12 -42 12 -58 0 -18 -13 -18 -14 6 -15 22 0 22 -1 4 -9
-11 -4 -32 -5 -48 -3 -23 5 -26 3 -21 -12 5 -13 2 -16 -12 -13 -10 2 -25 -3
-31 -12 -11 -13 -14 -13 -23 0 -7 10 -12 12 -17 4 -13 -18 -53 -27 -67 -15
-17 15 -46 3 -46 -18 0 -12 -9 -16 -32 -16 -29 0 -33 -3 -33 -26 1 -18 -4 -25
-12 -22 -7 3 -13 0 -13 -6 0 -6 7 -11 15 -11 8 0 15 -4 15 -10 0 -5 -7 -10
-15 -10 -20 0 -47 43 -39 64 3 9 1 16 -5 16 -6 0 -11 -4 -11 -10 0 -12 -29 -2
-52 17 -9 8 -46 17 -82 20 -58 5 -65 3 -60 -11 4 -11 1 -16 -10 -16 -9 0 -16
5 -16 10 0 14 -27 12 -33 -2 -3 -8 -6 -5 -6 6 -1 16 -3 17 -18 5 -15 -12 -16
-12 -11 8 6 21 -14 39 -32 28 -10 -6 -35 23 -27 31 3 4 -14 44 -38 91 -32 61
-42 90 -36 104 6 19 9 17 23 -18 9 -21 23 -58 32 -83 8 -25 15 -36 15 -24 1
30 -29 125 -44 140 -10 11 -11 22 -3 51 8 31 7 43 -7 70 -10 18 -21 33 -25 33
-12 0 -32 -28 -23 -32 12 -5 45 -79 38 -86 -3 -3 -5 0 -5 8 0 10 -3 10 -15 0
-8 -7 -15 -9 -15 -4 0 4 -16 -9 -35 -29 -40 -42 -45 -44 -45 -18 0 12 -13 24
-37 34 -36 15 -39 15 -55 -5 -21 -23 -23 -49 -6 -66 6 -6 12 -37 12 -68 1 -41
6 -59 19 -68 9 -7 17 -18 17 -25 0 -22 -44 -54 -79 -58 -20 -2 -41 -5 -48 -8
-6 -2 -14 3 -17 11 -3 8 -16 13 -28 13 -17 -1 -18 -2 -5 -6 9 -2 17 -11 17
-19 0 -11 -4 -12 -19 -4 -14 7 -21 6 -24 -3 -4 -9 -8 -8 -16 3 -5 8 -7 18 -5
22 3 4 0 8 -5 8 -6 0 -11 -4 -11 -8 0 -12 -89 -6 -105 8 -12 10 -15 9 -15 -9
0 -22 -14 -28 -26 -10 -4 8 -9 7 -16 -2 -6 -9 -7 -1 -3 24 4 23 2 37 -5 37 -5
0 -10 -7 -10 -15 0 -18 -17 -20 -22 -3 -3 7 -9 8 -19 2 -16 -10 -26 -12 -119
-18 -38 -3 -64 -10 -62 -16 3 -13 -9 -13 -28 0 -13 9 -13 12 3 21 22 13 22 31
0 28 -36 -3 -45 1 -39 19 5 14 4 14 -9 -2 -19 -25 -19 -36 0 -36 8 0 15 -5 15
-11 0 -15 26 -39 44 -39 10 0 14 -8 12 -27 -2 -16 -7 -26 -12 -23 -5 3 -7 11
-6 19 3 11 -5 13 -32 8 -34 -5 -48 4 -26 18 21 13 8 20 -30 17 -22 -2 -40 -8
-40 -13 0 -5 5 -9 11 -9 5 0 8 -4 5 -9 -9 -15 -61 4 -58 21 1 8 -10 25 -24 39
-14 13 -25 20 -24 14 5 -21 -1 -27 -14 -16 -10 8 -16 9 -21 1 -11 -17 -65 -12
-65 7 0 15 -15 10 -15 -5 0 -4 -4 -13 -9 -21 -6 -9 -5 -12 0 -8 6 3 16 2 24
-3 9 -5 19 -5 27 2 8 6 16 8 20 4 3 -3 0 -6 -8 -6 -12 0 -12 -2 1 -10 8 -5 11
-12 7 -17 -5 -4 -11 -2 -15 4 -6 9 -15 9 -36 -2 -35 -18 -36 -18 -36 0 0 19
-16 19 -24 0 -6 -17 22 -55 40 -55 7 0 15 -6 18 -12 5 -10 7 -10 12 0 3 6 21
12 40 12 28 0 32 3 27 18 -6 15 -5 15 10 3 11 -8 15 -21 12 -32 -4 -11 -2 -19
4 -19 6 0 11 -4 11 -10 0 -5 -7 -10 -15 -10 -8 0 -15 7 -15 16 0 9 -6 14 -13
11 -8 -3 -20 -1 -27 3 -8 5 -18 6 -23 3 -11 -7 12 -33 43 -46 25 -10 25 -11 3
-14 -13 -3 -32 4 -45 16 -12 12 -28 21 -35 21 -7 0 -13 8 -13 18 -1 16 -2 16
-15 -2 -15 -19 -35 -14 -35 10 0 8 -4 14 -10 14 -5 0 -10 -4 -10 -10 0 -5 -7
-10 -16 -10 -13 0 -12 4 5 26 22 28 19 63 -5 44 -7 -7 -11 -17 -8 -25 3 -7 0
-16 -7 -21 -8 -5 -10 -3 -4 6 6 10 2 11 -16 7 -14 -4 -35 -3 -48 0 -23 6 -23
7 -6 20 16 11 16 13 3 13 -9 0 -18 -7 -22 -15 -3 -8 -12 -15 -20 -15 -10 0
-13 6 -9 17 4 11 3 14 -5 9 -6 -4 -24 1 -39 11 -22 14 -25 14 -16 2 10 -12 10
-18 0 -28 -9 -10 -7 -11 14 -6 19 5 26 2 26 -9 0 -9 -5 -16 -10 -16 -5 0 -7
-7 -3 -15 3 -9 0 -15 -9 -15 -8 0 -12 -6 -9 -14 4 -11 -4 -15 -35 -14 -42 0
-59 17 -18 19 21 0 21 1 2 10 -17 8 -16 9 6 4 17 -3 31 1 39 10 11 13 8 15
-21 15 -31 0 -32 1 -13 14 18 14 18 15 1 22 -10 3 -21 4 -24 0 -3 -3 -12 -1
-20 6 -7 6 -17 8 -20 4 -4 -4 -3 -10 3 -14 15 -9 28 -52 16 -52 -5 0 -21 14
-36 32 -15 19 -26 26 -27 17 0 -8 -3 -25 -5 -39 -4 -24 -4 -24 10 -5 8 11 18
17 22 12 12 -11 -17 -57 -37 -57 -13 0 -17 8 -15 40 2 38 2 39 -17 22 -18 -16
-19 -16 -16 7 2 13 -2 26 -8 28 -8 3 -13 -5 -13 -21 0 -30 -3 -31 -35 -10 -22
14 -23 14 -18 -4 3 -11 13 -22 24 -25 10 -3 19 -10 19 -16 0 -15 -52 -2 -65
16 -17 23 -43 6 -38 -25 4 -25 3 -26 -10 -9 -9 10 -21 17 -29 16 -7 -1 -22 -1
-33 0 -18 2 -17 3 4 12 14 5 30 8 37 5 8 -3 11 0 8 9 -4 9 4 15 23 18 l28 4
-26 2 c-15 0 -39 -6 -55 -14 -19 -10 -32 -11 -40 -4 -19 15 -6 38 17 32 16 -5
18 -8 7 -14 -10 -7 -9 -9 5 -9 9 0 17 5 17 10 0 6 11 10 25 10 16 0 25 6 25
15 0 18 -79 22 -96 5 -6 -6 -23 -12 -37 -13 -33 -2 -37 -19 -8 -32 15 -7 19
-15 15 -29 -10 -30 -30 -47 -49 -40 -22 9 -14 27 16 35 22 6 22 7 3 8 -26 1
-34 18 -27 55 4 22 2 27 -8 24 -8 -3 -13 -13 -11 -22 2 -9 -2 -24 -8 -34 -10
-15 -11 -14 -6 6 4 21 2 23 -17 18 -12 -3 -30 -6 -39 -6 -12 0 -15 -5 -11 -17
4 -11 3 -14 -5 -9 -7 4 -12 2 -12 -4 0 -6 12 -15 27 -21 19 -7 23 -13 15 -21
-8 -8 -15 -8 -26 1 -10 8 -16 9 -21 1 -3 -5 1 -13 9 -16 9 -3 16 -12 16 -20 0
-8 5 -14 10 -14 6 0 10 -4 10 -9 0 -4 -11 -6 -24 -4 -13 3 -27 0 -30 -6 -4 -5
-14 -7 -22 -4 -14 5 -14 3 -3 -16 14 -22 36 -30 23 -8 -4 6 -3 8 1 4 14 -12
15 -38 2 -31 -7 3 -5 0 3 -8 9 -7 27 -31 40 -53 26 -43 27 -44 67 -95 16 -19
22 -30 14 -25 -8 4 3 -17 24 -47 22 -31 44 -54 49 -51 5 4 6 1 2 -5 -9 -14 78
-145 89 -134 5 4 5 2 2 -4 -3 -6 5 -27 19 -47 l25 -37 217 0 c156 0 231 4 267
14 28 8 111 32 185 54 74 22 212 63 305 90 94 28 249 73 345 102 96 28 200 59
230 68 30 8 58 20 62 26 4 6 8 8 8 4 0 -5 8 0 19 10 10 9 18 21 17 27 -1 5 10
10 23 11 23 1 24 1 6 -12 -10 -8 -15 -14 -9 -15 5 0 -2 -5 -16 -10 -20 -8 -22
-12 -10 -19 8 -5 11 -10 5 -10 -5 0 5 -10 24 -22 21 -14 29 -24 21 -26 -7 -3
-18 2 -24 10 -20 27 -52 29 -107 8 -30 -11 -63 -20 -74 -20 -19 -1 -18 -2 3
-13 12 -7 19 -17 15 -21 -4 -4 -2 -6 6 -4 7 2 16 -3 19 -11 2 -8 0 -11 -6 -8
-5 4 -15 0 -22 -8 -9 -10 -16 -12 -25 -5 -14 11 -59 -16 -50 -31 11 -16 -21
-38 -45 -32 -17 5 -21 3 -15 -6 6 -10 3 -11 -13 -2 -32 17 -39 13 -34 -19 3
-21 0 -30 -9 -31 -39 -2 -77 -17 -51 -20 7 -1 17 -2 22 -3 6 0 10 -4 10 -8 0
-5 -3 -8 -6 -7 -4 0 -10 -5 -15 -12 -6 -10 -10 -10 -23 0 -12 10 -16 9 -25 -8
-10 -17 -15 -18 -47 -10 -35 10 -64 0 -64 -22 0 -5 488 -9 1130 -9 l1130 0 0
1230 0 1230 -1705 0 c-938 0 -1705 -4 -1705 -8 0 -4 5 -13 12 -20 9 -9 -16
-12 -112 -12 -137 0 -170 5 -170 26 0 12 -103 14 -645 14 l-645 0 0 -1230z
m363 1055 c-3 -9 -8 -14 -10 -11 -3 3 -2 9 2 15 9 16 15 13 8 -4z m2844 -261
c-3 -3 -12 -4 -19 -1 -8 3 -5 6 6 6 11 1 17 -2 13 -5z m-1644 -16 c3 -10 8
-10 21 1 14 12 18 12 30 -5 16 -22 12 -34 -6 -16 -15 15 -32 16 -23 2 3 -5 -1
-10 -11 -10 -14 0 -15 -2 -3 -17 13 -16 12 -17 -3 -5 -10 8 -14 20 -11 29 5
12 2 15 -10 10 -11 -4 -14 -2 -10 9 6 17 20 18 26 2z m1280 -215 c-13 -2 -33
-2 -45 0 -13 2 -3 4 22 4 25 0 35 -2 23 -4z m-74 -7 c-9 -8 -98 -13 -93 -5 3
5 26 9 51 9 26 0 44 -2 42 -4z m-142 -12 c-3 -3 -12 -4 -19 -1 -8 3 -5 6 6 6
11 1 17 -2 13 -5z m-2010 -10 c-3 -3 -12 -4 -19 -1 -8 3 -5 6 6 6 11 1 17 -2
13 -5z m1708 -64 c13 -6 15 -9 5 -9 -8 0 -22 4 -30 9 -18 12 -2 12 25 0z m209
-35 c3 -9 0 -15 -8 -15 -7 0 -13 7 -13 15 0 8 4 15 8 15 4 0 9 -7 13 -15z
m786 -15 c0 -5 -6 -10 -12 -10 -9 0 -9 -3 1 -9 8 -5 11 -16 8 -26 -4 -9 -11
-13 -17 -10 -11 7 -14 48 -3 58 10 10 23 8 23 -3z m1175 -599 c3 -5 1 -12 -5
-16 -5 -3 -10 1 -10 9 0 18 6 21 15 7z m210 -101 c3 -6 -1 -7 -9 -4 -18 7 -21
14 -7 14 6 0 13 -4 16 -10z m-1450 -109 c6 -16 -12 -31 -29 -25 -7 3 -13 18
-14 34 -2 28 -1 29 18 18 11 -7 22 -19 25 -27z m15 -73 c0 -28 -3 -38 -9 -30
-6 11 -9 9 -14 -7 -3 -12 -12 -19 -25 -18 -11 0 -18 5 -16 9 3 4 0 8 -7 8 -7
0 -10 3 -7 6 4 3 17 0 30 -7 20 -11 22 -11 10 4 -11 13 -10 16 8 22 12 4 20 9
18 11 -3 2 -23 -4 -47 -13 -29 -11 -40 -21 -36 -31 4 -12 3 -13 -9 -3 -8 7
-20 10 -26 6 -5 -3 -10 -2 -10 4 0 5 -10 12 -22 14 -13 2 -5 3 16 0 32 -3 37
-1 28 10 -8 10 -6 16 10 26 19 12 23 11 35 -5 12 -17 13 -17 13 2 0 12 3 15 8
7 5 -8 13 -9 22 -3 13 9 13 10 0 11 -10 0 -8 3 5 9 11 5 21 9 23 9 1 1 2 -18
2 -41z m200 7 c0 -8 -4 -15 -10 -15 -5 0 -10 7 -10 15 0 8 5 15 10 15 6 0 10
-7 10 -15z m-1135 -12 c2 -8 -2 -16 -10 -19 -17 -7 -48 14 -40 26 8 13 44 7
50 -7z m305 7 c12 -8 11 -10 -7 -10 -12 0 -25 5 -28 10 -8 13 15 13 35 0z
m110 0 c0 -5 -4 -10 -10 -10 -5 0 -10 5 -10 10 0 6 5 10 10 10 6 0 10 -4 10
-10z m-163 -26 c-3 -3 -12 -4 -19 -1 -8 3 -5 6 6 6 11 1 17 -2 13 -5z m2268
-4 c3 -6 -1 -7 -9 -4 -18 7 -21 14 -7 14 6 0 13 -4 16 -10z m-995 -20 c0 -5
-2 -10 -4 -10 -3 0 -8 5 -11 10 -3 6 -1 10 4 10 6 0 11 -4 11 -10z m-720 -20
c0 -5 -2 -10 -4 -10 -3 0 -8 5 -11 10 -3 6 -1 10 4 10 6 0 11 -4 11 -10z m625
-9 c3 -5 0 -13 -6 -17 -7 -4 -9 -3 -5 4 3 6 -2 13 -11 15 -16 4 -16 5 -1 6 9
0 19 -3 23 -8z m-1780 -11 c-3 -5 -11 -10 -16 -10 -6 0 -7 5 -4 10 3 6 11 10
16 10 6 0 7 -4 4 -10z m-648 -6 c-3 -3 -12 -4 -19 -1 -8 3 -5 6 6 6 11 1 17
-2 13 -5z m473 -34 c0 -5 -4 -10 -10 -10 -5 0 -10 5 -10 10 0 6 5 10 10 10 6
0 10 -4 10 -10z m-446 -15 c4 -13 2 -14 -14 -5 -23 13 -26 20 -6 20 8 0 16 -7
20 -15z m116 -6 c0 -5 -4 -9 -10 -9 -5 0 -10 7 -10 16 0 8 5 12 10 9 6 -3 10
-10 10 -16z m597 6 c8 -9 12 -19 9 -23 -4 -3 -11 -1 -15 6 -5 8 -15 10 -26 5
-17 -6 -18 -5 -5 10 19 20 18 20 37 2z m-552 -5 c-3 -5 -11 -10 -16 -10 -6 0
-7 5 -4 10 3 6 11 10 16 10 6 0 7 -4 4 -10z m82 4 c-3 -3 -12 -4 -19 -1 -8 3
-5 6 6 6 11 1 17 -2 13 -5z m-276 -17 c-1 -12 -15 -9 -19 4 -3 6 1 10 8 8 6
-3 11 -8 11 -12z m412 6 c-7 -2 -21 -2 -30 0 -10 3 -4 5 12 5 17 0 24 -2 18
-5z m1677 -8 c-7 -8 -17 -15 -22 -15 -11 0 14 29 26 30 5 0 3 -7 -4 -15z
m-135 -5 c7 -11 -11 -100 -26 -135 -8 -17 -6 74 3 133 2 15 14 16 23 2z
m-1375 -14 c0 -11 -19 -15 -25 -6 -3 5 1 10 9 10 9 0 16 -2 16 -4z m1509 -33
c0 -16 -4 -37 -9 -48 -6 -15 -9 -8 -9 28 -1 26 4 47 9 47 6 0 10 -12 9 -27z
m650 6 c-22 -13 -31 -11 -17 5 7 8 17 12 22 9 4 -3 2 -9 -5 -14z m-2564 -40
c-9 -13 -55 -11 -55 2 0 6 7 9 15 6 8 -4 17 -2 20 4 4 5 11 7 16 3 5 -3 7 -10
4 -15z m1915 -104 c10 -12 10 -15 0 -15 -7 0 -10 -6 -7 -14 4 -10 -1 -15 -16
-15 -51 -1 -59 -2 -53 -8 3 -3 20 -6 37 -7 18 -1 34 -7 36 -13 5 -15 -64 -8
-83 8 -7 6 -22 8 -34 4 -11 -3 -20 -2 -20 4 0 5 27 17 59 27 43 11 58 20 54
30 -7 19 11 18 27 -1z m177 1 c0 -8 -8 -11 -21 -8 -19 5 -19 6 0 13 10 4 19 8
20 8 0 1 1 -5 1 -13z m-147 -107 c0 -6 -4 -7 -10 -4 -5 3 -10 11 -10 16 0 6 5
7 10 4 6 -3 10 -11 10 -16z m-300 -23 c0 -2 -7 -6 -15 -10 -8 -3 -15 -1 -15 4
0 6 7 10 15 10 8 0 15 -2 15 -4z m370 -27 c0 -5 -7 -9 -15 -9 -8 0 -15 7 -15
15 0 9 6 12 15 9 8 -4 15 -10 15 -15z m-460 -123 c-14 -8 -29 -11 -35 -8 -5 3
1 9 15 13 40 11 47 9 20 -5z m-50 -6 c0 -5 -2 -10 -4 -10 -3 0 -8 5 -11 10 -3
6 -1 10 4 10 6 0 11 -4 11 -10z"/>
<path d="M1109 1766 c-2 -2 -69 -7 -149 -10 -242 -10 -485 -28 -493 -36 -11
-9 9 -50 24 -50 6 0 8 -4 4 -9 -3 -5 9 -20 27 -32 23 -16 29 -18 19 -6 -18 22
-8 33 12 13 8 -8 28 -18 43 -21 23 -5 26 -4 14 5 -12 9 3 10 63 6 43 -3 76 -2
73 3 -5 7 78 14 146 13 9 0 19 6 22 14 3 8 10 14 16 14 6 0 9 -4 6 -9 -3 -4 6
-7 19 -5 14 1 25 -1 25 -6 0 -13 39 -19 68 -9 l27 9 -30 -4 c-17 -3 -37 -1
-45 5 -10 6 14 9 70 10 64 1 76 3 50 9 l-35 7 34 2 c29 1 32 3 21 16 -10 12
-9 15 7 15 11 0 30 9 43 20 13 11 28 21 34 21 15 2 -64 18 -90 18 -11 1 -23
-1 -25 -3z"/>
<path d="M385 1740 c-17 -8 -17 -9 7 -7 15 1 24 5 22 9 -3 4 -6 8 -7 7 -1 0
-11 -4 -22 -9z"/>
<path d="M300 1711 c-36 -3 -71 -10 -77 -14 -15 -9 -18 -31 -4 -23 5 4 7 -2 4
-13 -3 -10 0 -22 6 -25 6 -4 11 -15 11 -25 0 -9 6 -25 13 -36 13 -16 14 -15
11 16 -3 27 -2 29 4 10 8 -25 37 -37 49 -19 4 7 -2 9 -15 6 -12 -4 -22 -2 -22
3 0 5 27 9 60 9 36 0 60 4 60 11 0 5 5 7 11 3 7 -4 9 0 5 14 -4 11 -2 23 3 27
7 3 8 0 5 -10 -4 -11 -2 -14 9 -9 8 3 18 1 22 -5 4 -7 -1 -9 -12 -5 -15 5 -16
4 -3 -5 8 -6 18 -11 21 -11 12 0 16 37 7 55 -9 14 -12 15 -20 4 -7 -11 -8 -9
-4 5 4 10 1 25 -5 32 -12 14 -28 15 -139 5z"/>
<path d="M1215 1680 c3 -5 10 -10 16 -10 5 0 9 5 9 10 0 6 -7 10 -16 10 -8 0
-12 -4 -9 -10z"/>
<path d="M1995 1673 c-11 -2 -87 -11 -170 -21 l-150 -17 3 -80 c3 -94 -15 -92
-22 3 -2 35 -7 66 -10 69 -4 5 -237 -15 -243 -20 -1 -2 41 -28 95 -59 53 -31
106 -64 117 -72 l20 -16 -20 7 c-11 3 -32 14 -46 24 -14 10 -32 19 -39 21 -8
2 -22 10 -31 18 -10 8 -41 29 -71 47 l-53 31 -170 -13 c-239 -20 -423 -34
-543 -41 l-102 -7 20 -31 c11 -17 24 -30 28 -29 5 1 9 -4 9 -10 0 -7 18 -40
41 -73 44 -64 48 -74 33 -74 -5 0 -20 17 -32 38 -13 20 -31 46 -41 56 -10 11
-18 25 -18 32 0 7 -6 17 -14 21 -8 4 -14 10 -14 13 0 3 -6 17 -13 33 -11 25
-17 27 -67 27 -30 0 -95 -5 -143 -12 -99 -13 -97 -10 -61 -87 9 -19 17 -42 17
-50 3 -32 37 -121 46 -121 6 0 7 -5 4 -10 -3 -6 -3 -19 0 -31 5 -14 10 -17 19
-10 7 6 23 8 37 5 17 -4 20 -3 10 4 -10 7 -3 11 25 15 22 2 51 8 66 11 15 3
29 2 33 -4 4 -6 14 -5 28 4 12 7 37 12 55 11 25 -2 32 0 28 11 -7 17 10 28 20
13 5 -8 3 -9 -6 -4 -9 5 -11 4 -6 -4 6 -9 11 -9 22 0 7 6 11 15 8 20 -11 19
26 8 39 -12 l15 -21 7 21 c5 17 14 21 48 20 41 -1 41 -2 12 -10 -26 -7 -24 -8
10 -3 76 9 150 23 182 33 24 7 32 6 30 -2 -1 -6 9 -12 23 -14 14 -1 17 1 8 3
-30 9 -20 19 20 21 36 2 50 4 204 21 48 5 79 5 81 -1 2 -6 12 -4 23 3 17 10
28 10 54 1 18 -6 36 -9 38 -6 3 3 0 5 -7 5 -7 0 -9 4 -6 10 3 5 19 7 35 3 19
-3 30 -1 30 6 0 7 8 8 24 1 27 -10 69 -2 60 11 -3 5 3 9 13 9 10 0 25 5 33 10
12 7 10 11 -10 20 l-25 11 25 -7 c14 -4 37 -7 52 -7 16 0 25 -4 21 -10 -4 -6
-1 -7 8 -2 7 5 20 10 29 11 8 1 51 8 95 17 44 8 136 23 205 32 69 9 171 23
226 31 56 8 113 14 128 14 14 0 26 4 26 9 0 6 -21 7 -47 3 -27 -3 -67 -6 -90
-6 -24 -1 -43 -3 -43 -6 0 -3 -21 -6 -47 -7 -27 0 -66 -4 -88 -7 -28 -3 -31
-3 -10 2 39 10 20 21 -25 15 -19 -3 -64 -6 -100 -7 -36 -1 -71 -5 -77 -9 -7
-5 -13 -4 -13 2 0 5 -11 8 -25 5 -14 -2 -25 0 -25 6 0 6 -4 8 -10 5 -6 -3 -10
4 -10 17 0 19 -2 20 -11 8 -8 -11 -12 -12 -16 -2 -6 14 -33 16 -33 2 0 -5 -17
-9 -37 -9 l-38 1 30 9 c27 7 26 8 -12 6 -40 -2 -63 11 -25 15 9 0 28 3 42 5
14 2 43 6 65 8 22 2 51 8 65 13 14 5 28 10 33 11 4 0 8 1 10 1 1 1 36 3 77 6
41 3 93 10 115 16 l40 11 -37 13 c-35 12 -68 14 -113 7z m72 -169 c-3 -3 -12
-4 -19 -1 -8 3 -5 6 6 6 11 1 17 -2 13 -5z m-467 -104 c0 -5 -2 -10 -4 -10 -3
0 -8 5 -11 10 -3 6 -1 10 4 10 6 0 11 -4 11 -10z m-1133 -106 c-3 -3 -12 -4
-19 -1 -8 3 -5 6 6 6 11 1 17 -2 13 -5z m-44 -11 c-7 -2 -19 -2 -25 0 -7 3 -2
5 12 5 14 0 19 -2 13 -5z"/>
<path d="M165 1623 c-3 -14 -4 -28 0 -31 3 -3 5 2 5 12 0 10 5 14 12 10 7 -5
8 -3 3 6 -6 10 -4 12 9 7 11 -5 16 -3 14 5 -8 22 -36 16 -43 -9z"/>
<path d="M790 1620 c-11 -8 -7 -9 15 -4 37 8 45 14 19 14 -10 0 -26 -5 -34
-10z"/>
<path d="M653 1613 c9 -2 23 -2 30 0 6 3 -1 5 -18 5 -16 0 -22 -2 -12 -5z"/>
<path d="M200 1598 c0 -9 5 -20 10 -23 13 -8 13 5 0 25 -8 13 -10 13 -10 -2z"/>
<path d="M588 1593 c6 -2 18 -2 25 0 6 3 1 5 -13 5 -14 0 -19 -2 -12 -5z"/>
<path d="M2550 1592 c0 -1 10 -7 23 -12 22 -9 22 -9 -3 -10 -47 -3 -85 -11
-94 -21 -15 -14 23 -11 82 6 29 9 58 15 65 13 7 -2 12 2 12 7 0 6 -11 9 -25 7
-17 -2 -21 0 -12 6 9 6 4 9 -17 8 -17 -1 -31 -2 -31 -4z"/>
<path d="M718 1583 c7 -3 16 -2 19 1 4 3 -2 6 -13 5 -11 0 -14 -3 -6 -6z"/>
<path d="M405 1570 c3 -5 11 -10 16 -10 6 0 7 5 4 10 -3 6 -11 10 -16 10 -6 0
-7 -4 -4 -10z"/>
<path d="M411 1144 c0 -11 3 -14 6 -6 3 7 2 16 -1 19 -3 4 -6 -2 -5 -13z"/>
<path d="M4250 1056 c0 -2 7 -7 16 -10 8 -3 12 -2 9 4 -6 10 -25 14 -25 6z"/>
<path d="M4305 1020 c-16 -6 -15 -8 10 -13 41 -9 91 -52 75 -62 -9 -5 -11 -4
-6 3 10 17 -6 15 -32 -4 -21 -15 -28 -10 -23 19 0 4 -6 7 -14 7 -21 0 -19 -37
3 -50 14 -9 13 -10 -8 -4 -14 3 -32 13 -41 20 -24 21 -39 17 -37 -11 1 -13 4
-22 6 -20 3 2 14 0 25 -6 15 -8 18 -8 12 1 -5 8 -3 11 4 9 7 -3 11 -8 9 -13
-4 -10 92 -47 103 -40 4 2 11 -1 14 -7 4 -5 14 -8 22 -5 8 3 12 2 9 -3 -5 -8
22 -19 146 -62 39 -13 45 -12 262 53 l69 21 -124 39 c-223 72 -281 88 -292 81
-5 -3 -7 -1 -4 4 9 15 -39 23 -54 9 -9 -8 -10 -7 -4 3 6 11 4 13 -9 8 -10 -4
-15 -3 -11 3 6 10 -6 14 -37 11 -10 -1 -25 2 -35 7 -10 5 -27 6 -38 2z m232
-96 c-3 -3 -12 -4 -19 -1 -8 3 -5 6 6 6 11 1 17 -2 13 -5z m-170 -40 c-3 -3
-12 -4 -19 -1 -8 3 -5 6 6 6 11 1 17 -2 13 -5z m28 -14 c-3 -5 -11 -10 -16
-10 -6 0 -7 5 -4 10 3 6 11 10 16 10 6 0 7 -4 4 -10z"/>
<path d="M2028 993 c7 -3 16 -2 19 1 4 3 -2 6 -13 5 -11 0 -14 -3 -6 -6z"/>
<path d="M4278 993 c6 -2 18 -2 25 0 6 3 1 5 -13 5 -14 0 -19 -2 -12 -5z"/>
<path d="M4320 990 c0 -13 18 -22 24 -11 3 5 -1 11 -9 15 -8 3 -15 1 -15 -4z"/>
<path d="M466 972 c-5 -9 -2 -39 5 -46 3 -3 5 8 4 24 0 32 -1 35 -9 22z"/>
<path d="M4340 960 c-8 -5 -10 -10 -5 -10 6 0 17 5 25 10 8 5 11 10 5 10 -5 0
-17 -5 -25 -10z"/>
<path d="M1390 910 c-9 -6 -10 -10 -3 -10 6 0 15 5 18 10 8 12 4 12 -15 0z"/>
<path d="M531 884 c0 -11 3 -14 6 -6 3 7 2 16 -1 19 -3 4 -6 -2 -5 -13z"/>
<path d="M4103 893 c9 -2 15 -9 11 -14 -3 -5 -10 -6 -16 -3 -7 4 -8 2 -4 -4 4
-6 20 -10 37 -8 34 4 46 12 34 24 -4 4 -10 1 -12 -5 -3 -7 -9 -13 -14 -13 -6
0 -8 4 -5 9 6 9 -17 22 -37 20 -7 -1 -4 -3 6 -6z"/>
<path d="M4193 893 c4 -6 1 -14 -5 -16 -7 -3 -1 -6 14 -6 15 -1 30 4 34 11 4
7 3 8 -5 4 -6 -4 -19 -2 -28 6 -10 7 -14 8 -10 1z"/>
<path d="M1225 880 c-8 -13 5 -13 25 0 13 8 13 10 -2 10 -9 0 -20 -4 -23 -10z"/>
<path d="M1398 883 c6 -2 18 -2 25 0 6 3 1 5 -13 5 -14 0 -19 -2 -12 -5z"/>
<path d="M500 871 c0 -6 4 -13 10 -16 6 -3 7 1 4 9 -7 18 -14 21 -14 7z"/>
<path d="M4260 870 c8 -5 20 -10 25 -10 6 0 3 5 -5 10 -8 5 -19 10 -25 10 -5
0 -3 -5 5 -10z"/>
<path d="M1295 860 c-3 -6 1 -7 9 -4 18 7 21 14 7 14 -6 0 -13 -4 -16 -10z"/>
<path d="M1220 850 c-13 -8 -13 -10 2 -10 9 0 20 5 23 10 8 13 -5 13 -25 0z"/>
<path d="M2563 844 c-7 -18 13 -34 42 -34 18 1 19 1 3 11 -10 5 -18 17 -18 24
0 20 -19 19 -27 -1z"/>
<path d="M490 830 c0 -5 5 -10 11 -10 5 0 7 5 4 10 -3 6 -8 10 -11 10 -2 0 -4
-4 -4 -10z"/>
<path d="M1511 824 c0 -11 3 -14 6 -6 3 7 2 16 -1 19 -3 4 -6 -2 -5 -13z"/>
<path d="M2235 830 c-3 -5 1 -10 9 -10 9 0 16 5 16 10 0 6 -4 10 -9 10 -6 0
-13 -4 -16 -10z"/>
<path d="M2400 830 c0 -5 5 -10 10 -10 14 0 12 -27 -2 -33 -7 -3 2 -6 20 -6
l33 -1 -23 30 c-22 30 -38 39 -38 20z"/>
<path d="M1074 813 c11 -13 21 -23 24 -23 3 0 2 3 -1 7 -4 3 -1 13 6 22 10 14
10 14 -4 4 -12 -10 -18 -10 -29 0 -8 6 -6 2 4 -10z"/>
<path d="M1198 823 c6 -2 18 -2 25 0 6 3 1 5 -13 5 -14 0 -19 -2 -12 -5z"/>
<path d="M1242 813 c-6 -2 -9 -9 -6 -15 4 -6 9 -5 14 3 7 10 12 10 27 -2 16
-13 17 -13 4 4 -14 18 -18 19 -39 10z"/>
<path d="M1450 810 c-8 -5 -11 -12 -7 -16 4 -4 13 -2 19 4 15 15 7 24 -12 12z"/>
<path d="M1538 803 c7 -3 16 -2 19 1 4 3 -2 6 -13 5 -11 0 -14 -3 -6 -6z"/>
<path d="M2068 803 c6 -2 10 -8 7 -13 -3 -4 6 -10 20 -12 14 -3 25 -2 25 2 0
7 -46 31 -58 29 -4 0 -1 -3 6 -6z"/>
<path d="M1074 783 c16 -20 36 -23 36 -6 0 4 -3 3 -7 0 -3 -4 -16 1 -27 10
-21 18 -21 18 -2 -4z"/>
<path d="M536 761 c-16 -17 -16 -24 -5 -58 7 -21 14 -32 16 -25 3 6 9 10 14 6
5 -3 9 -1 9 5 0 15 -20 24 -21 9 0 -7 -5 0 -11 16 -8 22 -7 30 3 37 10 6 17
-2 27 -27 13 -30 12 -37 -3 -60 -16 -24 -16 -27 0 -43 15 -15 16 -15 9 2 -3
10 -1 17 5 17 14 0 15 -27 1 -35 -5 -3 -10 -14 -10 -23 0 -15 2 -15 10 -2 8
11 9 7 8 -17 -3 -38 12 -45 29 -13 10 21 11 20 10 -14 0 -20 -4 -31 -8 -25 -3
6 -9 1 -12 -12 -4 -15 0 -27 11 -36 9 -8 11 -12 5 -8 -16 8 -18 17 20 -105 19
-58 51 -160 72 -227 l39 -123 393 0 c242 0 393 4 393 10 0 12 -89 142 -109
158 -9 7 -15 15 -13 18 5 9 -29 64 -40 61 -6 -1 -11 7 -12 18 -2 12 -20 45
-42 75 -22 30 -43 63 -47 73 -4 10 -11 15 -17 12 -5 -3 -7 0 -5 8 3 7 -4 22
-15 32 -18 17 -23 17 -32 5 -8 -12 -9 -11 -4 3 3 10 6 21 6 23 0 3 5 2 11 -2
6 -3 3 5 -6 20 -20 31 -30 35 -15 6 7 -14 7 -20 0 -20 -5 0 -10 5 -10 11 0 6
-7 9 -15 5 -17 -6 -21 9 -5 19 6 3 10 13 10 22 0 13 -3 13 -16 2 -13 -11 -15
-9 -10 12 4 16 -1 32 -15 49 -11 14 -18 19 -14 13 3 -7 1 -22 -6 -34 -9 -17
-13 -19 -20 -8 -12 19 -11 42 1 34 19 -12 10 12 -13 33 -18 17 -26 19 -35 10
-17 -17 -15 -33 3 -18 11 9 15 9 15 1 0 -6 -12 -16 -26 -21 -14 -6 -22 -15
-19 -21 5 -7 13 -5 24 5 25 22 28 20 27 -17 -1 -27 -5 -33 -18 -29 -10 2 -18
9 -18 14 0 6 -11 3 -25 -6 -21 -14 -24 -14 -19 -1 5 11 -1 15 -19 15 -21 0
-24 -4 -22 -33 3 -31 1 -33 -31 -34 -27 -1 -34 3 -34 18 0 10 -7 19 -15 19 -8
0 -15 -7 -15 -15 0 -8 -4 -15 -10 -15 -5 0 -10 4 -10 9 0 5 -3 16 -6 24 -4 12
3 17 28 20 l33 4 -36 1 c-25 1 -39 -3 -43 -13 -3 -8 -9 -14 -13 -13 -4 1 -18
-2 -31 -6 -16 -5 -29 -3 -40 7 -9 8 -22 13 -28 10 -7 -2 -14 8 -18 22 -6 24
-26 36 -26 14 0 -5 -4 -7 -10 -4 -5 3 -10 1 -10 -6 0 -7 -3 -9 -6 -6 -4 4 -2
13 4 20 8 9 8 24 1 50 -12 46 -20 48 -13 5 5 -30 4 -31 -9 -15 -11 14 -16 15
-20 5 -3 -7 -3 8 0 33 4 36 1 51 -13 68 -23 26 -26 26 -48 2z m76 -176 c-6
-34 -12 -32 -12 6 0 16 4 28 9 25 4 -3 6 -17 3 -31z m531 0 c-3 -8 -10 -15
-15 -15 -7 0 -6 5 1 13 6 8 7 18 3 22 -4 5 -2 5 5 1 7 -4 10 -13 6 -21z m-23
-35 c0 -5 -5 -10 -11 -10 -5 0 -7 5 -4 10 3 6 8 10 11 10 2 0 4 -4 4 -10z
m-330 -25 c-6 -16 -6 -25 0 -25 6 0 10 -4 10 -10 0 -5 -7 -7 -15 -4 -8 4 -15
17 -15 29 0 20 6 27 27 34 1 1 -2 -10 -7 -24z m360 9 c0 -7 -27 -34 -34 -34
-4 0 -1 9 6 20 12 19 28 27 28 14z m-55 -54 c3 -5 -1 -10 -10 -10 -9 0 -13 5
-10 10 3 6 8 10 10 10 2 0 7 -4 10 -10z m198 -135 c-3 -9 -8 -14 -10 -11 -3 3
-2 9 2 15 9 16 15 13 8 -4z"/>
<path d="M960 771 c0 -6 5 -13 10 -16 6 -3 10 1 10 9 0 9 -4 16 -10 16 -5 0
-10 -4 -10 -9z"/>
<path d="M1320 770 c20 -13 33 -13 25 0 -3 6 -14 10 -23 10 -15 0 -15 -2 -2
-10z"/>
<path d="M1680 767 c0 -10 8 -17 18 -17 9 0 13 4 7 8 -5 4 -13 11 -17 16 -5 5
-8 2 -8 -7z"/>
<path d="M1725 770 c-3 -5 -1 -10 4 -10 6 0 11 5 11 10 0 6 -2 10 -4 10 -3 0
-8 -4 -11 -10z"/>
<path d="M3848 768 c9 -9 15 -9 24 0 9 9 7 12 -12 12 -19 0 -21 -3 -12 -12z"/>
<path d="M4728 773 c7 -3 16 -2 19 1 4 3 -2 6 -13 5 -11 0 -14 -3 -6 -6z"/>
<path d="M1175 740 c-15 -16 -16 -23 -6 -33 10 -9 12 -9 9 3 -2 8 2 14 7 13 6
-1 11 7 11 18 0 23 1 23 -21 -1z"/>
<path d="M1293 733 c9 -2 23 -2 30 0 6 3 -1 5 -18 5 -16 0 -22 -2 -12 -5z"/>
<path d="M1136 690 c19 -32 32 -34 15 -2 -6 11 -7 22 -4 26 3 3 -1 6 -11 6
-16 0 -16 -2 0 -30z"/>
<path d="M1028 692 c-10 -2 -18 -8 -18 -13 0 -13 27 -11 35 2 9 13 4 16 -17
11z"/>
<path d="M1185 680 c-17 -7 -17 -9 -2 -9 9 -1 17 -5 17 -11 0 -5 9 -10 20 -10
11 0 20 -4 20 -10 0 -16 -42 -11 -55 7 -9 13 -14 13 -20 3 -5 -9 -4 -11 3 -6
7 4 13 2 13 -3 1 -6 2 -15 3 -20 1 -9 53 -61 62 -61 11 0 -22 40 -41 49 -11 5
-14 10 -7 10 6 1 21 -8 33 -20 11 -11 28 -19 36 -17 15 3 15 5 -1 20 -11 11
-15 25 -11 38 5 14 2 20 -10 20 -8 0 -18 7 -21 15 -7 17 -10 17 -39 5z"/>
<path d="M4255 630 c-3 -6 1 -7 9 -4 18 7 21 14 7 14 -6 0 -13 -4 -16 -10z"/>
<path d="M740 596 c0 -2 7 -6 15 -10 8 -3 15 -1 15 4 0 6 -7 10 -15 10 -8 0
-15 -2 -15 -4z"/>
<path d="M910 570 c0 -19 3 -21 12 -12 9 9 9 15 0 24 -9 9 -12 7 -12 -12z"/>
<path d="M3030 270 c0 -5 4 -10 9 -10 6 0 13 5 16 10 3 6 -1 10 -9 10 -9 0
-16 -4 -16 -10z"/>
<path d="M2967 247 c-4 -10 2 -13 19 -9 13 2 21 8 18 13 -8 14 -31 11 -37 -4z"/>
<path d="M2926 234 c-5 -14 -4 -15 9 -4 17 14 19 20 6 20 -5 0 -12 -7 -15 -16z"/>
<path d="M2878 223 c7 -3 16 -2 19 1 4 3 -2 6 -13 5 -11 0 -14 -3 -6 -6z"/>
<path d="M2800 200 c-18 -12 -2 -12 25 0 13 6 15 9 5 9 -8 0 -22 -4 -30 -9z"/>
<path d="M2615 150 c-16 -7 -17 -9 -3 -9 9 -1 20 4 23 9 7 11 7 11 -20 0z"/>
<path d="M666 127 c3 -10 9 -15 12 -12 3 3 0 11 -7 18 -10 9 -11 8 -5 -6z"/>
<path d="M2545 124 c-11 -8 -26 -12 -35 -9 -9 3 -7 -1 4 -10 11 -8 25 -15 30
-15 6 0 4 5 -4 11 -12 8 -10 9 9 4 17 -5 21 -4 16 5 -4 7 -1 16 6 21 8 5 10 9
4 9 -5 -1 -19 -7 -30 -16z"/>
<path d="M2460 101 c0 -5 8 -15 18 -22 15 -13 16 -12 3 4 -18 22 -6 22 28 -2
24 -17 29 -18 51 -5 l25 15 -30 -6 c-19 -3 -38 0 -50 9 -22 17 -45 21 -45 7z"/>
<path d="M2404 85 c-10 -8 -14 -15 -7 -15 19 0 43 11 43 21 0 13 -14 11 -36
-6z"/>
<path d="M2350 70 c-13 -8 -12 -10 3 -10 9 0 17 5 17 10 0 12 -1 12 -20 0z"/>
<path d="M2440 70 c-9 -6 -10 -10 -3 -10 6 0 15 5 18 10 8 12 4 12 -15 0z"/>
<path d="M2576 65 c-8 -8 -21 -15 -29 -15 -8 0 -20 -7 -27 -15 -7 -8 -23 -15
-37 -15 -14 0 -21 -4 -18 -10 8 -13 225 -13 225 0 0 6 -7 10 -15 10 -8 0 -15
5 -15 10 0 6 -11 15 -25 20 -14 5 -25 14 -25 20 0 15 -16 12 -34 -5z"/>
<path d="M702 20 c0 -14 2 -19 5 -12 2 6 2 18 0 25 -3 6 -5 1 -5 -13z"/>
<path d="M2245 31 c-3 -5 0 -13 6 -17 7 -4 9 -3 5 4 -3 6 2 13 11 15 16 4 16
5 1 6 -9 0 -19 -3 -23 -8z"/>
<path d="M2378 33 c7 -3 16 -2 19 1 4 3 -2 6 -13 5 -11 0 -14 -3 -6 -6z"/>
<path d="M2160 14 l-35 -14 35 6 c40 7 76 24 50 23 -8 0 -31 -7 -50 -15z"/>
<path d="M2430 19 c0 -6 -8 -9 -20 -6 -11 3 -20 1 -20 -4 0 -11 31 -11 49 0 9
6 10 11 2 15 -6 4 -11 2 -11 -5z"/>
<path d="M2328 3 c6 -2 18 -2 25 0 6 3 1 5 -13 5 -14 0 -19 -2 -12 -5z"/>
</g>
</svg>
